<?xml version="1.0" encoding="utf-8"?>
<svg xmlns="http://www.w3.org/2000/svg" xmlns:xlink="http://www.w3.org/1999/xlink" width="600" height="400" viewBox="0 0 2400 1600">
<defs>
  <clipPath id="clip540">
    <rect x="0" y="0" width="2400" height="1600"/>
  </clipPath>
</defs>
<path clip-path="url(#clip540)" d="
M0 1600 L2400 1600 L2400 0 L0 0  Z
  " fill="#282a36" fill-rule="evenodd" fill-opacity="1"/>
<defs>
  <clipPath id="clip541">
    <rect x="480" y="0" width="1681" height="1600"/>
  </clipPath>
</defs>
<path clip-path="url(#clip540)" d="
M255.977 661.294 L2352.76 661.294 L2352.76 123.472 L255.977 123.472  Z
  " fill="#30343b" fill-rule="evenodd" fill-opacity="1"/>
<defs>
  <clipPath id="clip542">
    <rect x="255" y="123" width="2098" height="539"/>
  </clipPath>
</defs>
<polyline clip-path="url(#clip542)" style="stroke:#f8f8f2; stroke-linecap:round; stroke-linejoin:round; stroke-width:2; stroke-opacity:0.1; fill:none" points="
  315.32,661.294 315.32,123.472 
  "/>
<polyline clip-path="url(#clip542)" style="stroke:#f8f8f2; stroke-linecap:round; stroke-linejoin:round; stroke-width:2; stroke-opacity:0.1; fill:none" points="
  809.843,661.294 809.843,123.472 
  "/>
<polyline clip-path="url(#clip542)" style="stroke:#f8f8f2; stroke-linecap:round; stroke-linejoin:round; stroke-width:2; stroke-opacity:0.1; fill:none" points="
  1304.37,661.294 1304.37,123.472 
  "/>
<polyline clip-path="url(#clip542)" style="stroke:#f8f8f2; stroke-linecap:round; stroke-linejoin:round; stroke-width:2; stroke-opacity:0.1; fill:none" points="
  1798.89,661.294 1798.89,123.472 
  "/>
<polyline clip-path="url(#clip542)" style="stroke:#f8f8f2; stroke-linecap:round; stroke-linejoin:round; stroke-width:2; stroke-opacity:0.1; fill:none" points="
  2293.41,661.294 2293.41,123.472 
  "/>
<polyline clip-path="url(#clip540)" style="stroke:#f8f8f2; stroke-linecap:round; stroke-linejoin:round; stroke-width:4; stroke-opacity:1; fill:none" points="
  255.977,661.294 2352.76,661.294 
  "/>
<polyline clip-path="url(#clip540)" style="stroke:#f8f8f2; stroke-linecap:round; stroke-linejoin:round; stroke-width:4; stroke-opacity:1; fill:none" points="
  315.32,661.294 315.32,642.396 
  "/>
<polyline clip-path="url(#clip540)" style="stroke:#f8f8f2; stroke-linecap:round; stroke-linejoin:round; stroke-width:4; stroke-opacity:1; fill:none" points="
  809.843,661.294 809.843,642.396 
  "/>
<polyline clip-path="url(#clip540)" style="stroke:#f8f8f2; stroke-linecap:round; stroke-linejoin:round; stroke-width:4; stroke-opacity:1; fill:none" points="
  1304.37,661.294 1304.37,642.396 
  "/>
<polyline clip-path="url(#clip540)" style="stroke:#f8f8f2; stroke-linecap:round; stroke-linejoin:round; stroke-width:4; stroke-opacity:1; fill:none" points="
  1798.89,661.294 1798.89,642.396 
  "/>
<polyline clip-path="url(#clip540)" style="stroke:#f8f8f2; stroke-linecap:round; stroke-linejoin:round; stroke-width:4; stroke-opacity:1; fill:none" points="
  2293.41,661.294 2293.41,642.396 
  "/>
<path clip-path="url(#clip540)" d="M292.704 692.213 Q289.093 692.213 287.265 695.777 Q285.459 699.319 285.459 706.449 Q285.459 713.555 287.265 717.12 Q289.093 720.661 292.704 720.661 Q296.339 720.661 298.144 717.12 Q299.973 713.555 299.973 706.449 Q299.973 699.319 298.144 695.777 Q296.339 692.213 292.704 692.213 M292.704 688.509 Q298.515 688.509 301.57 693.115 Q304.649 697.699 304.649 706.449 Q304.649 715.175 301.57 719.782 Q298.515 724.365 292.704 724.365 Q286.894 724.365 283.816 719.782 Q280.76 715.175 280.76 706.449 Q280.76 697.699 283.816 693.115 Q286.894 688.509 292.704 688.509 Z" fill="#f8f8f2" fill-rule="evenodd" fill-opacity="1" /><path clip-path="url(#clip540)" d="M312.866 717.814 L317.751 717.814 L317.751 723.694 L312.866 723.694 L312.866 717.814 Z" fill="#f8f8f2" fill-rule="evenodd" fill-opacity="1" /><path clip-path="url(#clip540)" d="M337.936 692.213 Q334.325 692.213 332.496 695.777 Q330.69 699.319 330.69 706.449 Q330.69 713.555 332.496 717.12 Q334.325 720.661 337.936 720.661 Q341.57 720.661 343.375 717.12 Q345.204 713.555 345.204 706.449 Q345.204 699.319 343.375 695.777 Q341.57 692.213 337.936 692.213 M337.936 688.509 Q343.746 688.509 346.801 693.115 Q349.88 697.699 349.88 706.449 Q349.88 715.175 346.801 719.782 Q343.746 724.365 337.936 724.365 Q332.125 724.365 329.047 719.782 Q325.991 715.175 325.991 706.449 Q325.991 697.699 329.047 693.115 Q332.125 688.509 337.936 688.509 Z" fill="#f8f8f2" fill-rule="evenodd" fill-opacity="1" /><path clip-path="url(#clip540)" d="M781.58 719.759 L797.899 719.759 L797.899 723.694 L775.955 723.694 L775.955 719.759 Q778.617 717.004 783.2 712.374 Q787.806 707.722 788.987 706.379 Q791.232 703.856 792.112 702.12 Q793.015 700.361 793.015 698.671 Q793.015 695.916 791.07 694.18 Q789.149 692.444 786.047 692.444 Q783.848 692.444 781.394 693.208 Q778.964 693.972 776.186 695.523 L776.186 690.801 Q779.01 689.666 781.464 689.088 Q783.917 688.509 785.955 688.509 Q791.325 688.509 794.519 691.194 Q797.714 693.879 797.714 698.37 Q797.714 700.5 796.904 702.421 Q796.116 704.319 794.01 706.912 Q793.431 707.583 790.329 710.8 Q787.228 713.995 781.58 719.759 Z" fill="#f8f8f2" fill-rule="evenodd" fill-opacity="1" /><path clip-path="url(#clip540)" d="M807.714 717.814 L812.598 717.814 L812.598 723.694 L807.714 723.694 L807.714 717.814 Z" fill="#f8f8f2" fill-rule="evenodd" fill-opacity="1" /><path clip-path="url(#clip540)" d="M822.829 689.134 L841.186 689.134 L841.186 693.069 L827.112 693.069 L827.112 701.541 Q828.13 701.194 829.149 701.032 Q830.167 700.847 831.186 700.847 Q836.973 700.847 840.352 704.018 Q843.732 707.189 843.732 712.606 Q843.732 718.185 840.26 721.286 Q836.788 724.365 830.468 724.365 Q828.292 724.365 826.024 723.995 Q823.778 723.624 821.371 722.884 L821.371 718.185 Q823.454 719.319 825.677 719.874 Q827.899 720.43 830.376 720.43 Q834.38 720.43 836.718 718.324 Q839.056 716.217 839.056 712.606 Q839.056 708.995 836.718 706.888 Q834.38 704.782 830.376 704.782 Q828.501 704.782 826.626 705.199 Q824.774 705.615 822.829 706.495 L822.829 689.134 Z" fill="#f8f8f2" fill-rule="evenodd" fill-opacity="1" /><path clip-path="url(#clip540)" d="M1271.53 689.134 L1289.89 689.134 L1289.89 693.069 L1275.81 693.069 L1275.81 701.541 Q1276.83 701.194 1277.85 701.032 Q1278.87 700.847 1279.89 700.847 Q1285.67 700.847 1289.05 704.018 Q1292.43 707.189 1292.43 712.606 Q1292.43 718.185 1288.96 721.286 Q1285.49 724.365 1279.17 724.365 Q1276.99 724.365 1274.73 723.995 Q1272.48 723.624 1270.07 722.884 L1270.07 718.185 Q1272.16 719.319 1274.38 719.874 Q1276.6 720.43 1279.08 720.43 Q1283.08 720.43 1285.42 718.324 Q1287.76 716.217 1287.76 712.606 Q1287.76 708.995 1285.42 706.888 Q1283.08 704.782 1279.08 704.782 Q1277.2 704.782 1275.33 705.199 Q1273.48 705.615 1271.53 706.495 L1271.53 689.134 Z" fill="#f8f8f2" fill-rule="evenodd" fill-opacity="1" /><path clip-path="url(#clip540)" d="M1301.65 717.814 L1306.53 717.814 L1306.53 723.694 L1301.65 723.694 L1301.65 717.814 Z" fill="#f8f8f2" fill-rule="evenodd" fill-opacity="1" /><path clip-path="url(#clip540)" d="M1326.72 692.213 Q1323.1 692.213 1321.28 695.777 Q1319.47 699.319 1319.47 706.449 Q1319.47 713.555 1321.28 717.12 Q1323.1 720.661 1326.72 720.661 Q1330.35 720.661 1332.16 717.12 Q1333.98 713.555 1333.98 706.449 Q1333.98 699.319 1332.16 695.777 Q1330.35 692.213 1326.72 692.213 M1326.72 688.509 Q1332.53 688.509 1335.58 693.115 Q1338.66 697.699 1338.66 706.449 Q1338.66 715.175 1335.58 719.782 Q1332.53 724.365 1326.72 724.365 Q1320.91 724.365 1317.83 719.782 Q1314.77 715.175 1314.77 706.449 Q1314.77 697.699 1317.83 693.115 Q1320.91 688.509 1326.72 688.509 Z" fill="#f8f8f2" fill-rule="evenodd" fill-opacity="1" /><path clip-path="url(#clip540)" d="M1765.21 689.134 L1787.43 689.134 L1787.43 691.125 L1774.89 723.694 L1770 723.694 L1781.81 693.069 L1765.21 693.069 L1765.21 689.134 Z" fill="#f8f8f2" fill-rule="evenodd" fill-opacity="1" /><path clip-path="url(#clip540)" d="M1796.55 717.814 L1801.44 717.814 L1801.44 723.694 L1796.55 723.694 L1796.55 717.814 Z" fill="#f8f8f2" fill-rule="evenodd" fill-opacity="1" /><path clip-path="url(#clip540)" d="M1811.67 689.134 L1830.02 689.134 L1830.02 693.069 L1815.95 693.069 L1815.95 701.541 Q1816.97 701.194 1817.99 701.032 Q1819.01 700.847 1820.02 700.847 Q1825.81 700.847 1829.19 704.018 Q1832.57 707.189 1832.57 712.606 Q1832.57 718.185 1829.1 721.286 Q1825.63 724.365 1819.31 724.365 Q1817.13 724.365 1814.86 723.995 Q1812.62 723.624 1810.21 722.884 L1810.21 718.185 Q1812.29 719.319 1814.51 719.874 Q1816.74 720.43 1819.21 720.43 Q1823.22 720.43 1825.56 718.324 Q1827.89 716.217 1827.89 712.606 Q1827.89 708.995 1825.56 706.888 Q1823.22 704.782 1819.21 704.782 Q1817.34 704.782 1815.46 705.199 Q1813.61 705.615 1811.67 706.495 L1811.67 689.134 Z" fill="#f8f8f2" fill-rule="evenodd" fill-opacity="1" /><path clip-path="url(#clip540)" d="M2245.49 719.759 L2253.12 719.759 L2253.12 693.393 L2244.81 695.06 L2244.81 690.801 L2253.08 689.134 L2257.75 689.134 L2257.75 719.759 L2265.39 719.759 L2265.39 723.694 L2245.49 723.694 L2245.49 719.759 Z" fill="#f8f8f2" fill-rule="evenodd" fill-opacity="1" /><path clip-path="url(#clip540)" d="M2284.84 692.213 Q2281.23 692.213 2279.4 695.777 Q2277.59 699.319 2277.59 706.449 Q2277.59 713.555 2279.4 717.12 Q2281.23 720.661 2284.84 720.661 Q2288.47 720.661 2290.28 717.12 Q2292.11 713.555 2292.11 706.449 Q2292.11 699.319 2290.28 695.777 Q2288.47 692.213 2284.84 692.213 M2284.84 688.509 Q2290.65 688.509 2293.7 693.115 Q2296.78 697.699 2296.78 706.449 Q2296.78 715.175 2293.7 719.782 Q2290.65 724.365 2284.84 724.365 Q2279.03 724.365 2275.95 719.782 Q2272.89 715.175 2272.89 706.449 Q2272.89 697.699 2275.95 693.115 Q2279.03 688.509 2284.84 688.509 Z" fill="#f8f8f2" fill-rule="evenodd" fill-opacity="1" /><path clip-path="url(#clip540)" d="M2305 717.814 L2309.88 717.814 L2309.88 723.694 L2305 723.694 L2305 717.814 Z" fill="#f8f8f2" fill-rule="evenodd" fill-opacity="1" /><path clip-path="url(#clip540)" d="M2330.07 692.213 Q2326.46 692.213 2324.63 695.777 Q2322.82 699.319 2322.82 706.449 Q2322.82 713.555 2324.63 717.12 Q2326.46 720.661 2330.07 720.661 Q2333.7 720.661 2335.51 717.12 Q2337.34 713.555 2337.34 706.449 Q2337.34 699.319 2335.51 695.777 Q2333.7 692.213 2330.07 692.213 M2330.07 688.509 Q2335.88 688.509 2338.93 693.115 Q2342.01 697.699 2342.01 706.449 Q2342.01 715.175 2338.93 719.782 Q2335.88 724.365 2330.07 724.365 Q2324.26 724.365 2321.18 719.782 Q2318.12 715.175 2318.12 706.449 Q2318.12 697.699 2321.18 693.115 Q2324.26 688.509 2330.07 688.509 Z" fill="#f8f8f2" fill-rule="evenodd" fill-opacity="1" /><path clip-path="url(#clip540)" d="M1153.88 758.638 L1194.08 758.638 L1194.08 764.049 L1177.21 764.049 L1177.21 806.158 L1170.75 806.158 L1170.75 764.049 L1153.88 764.049 L1153.88 758.638 Z" fill="#f8f8f2" fill-rule="evenodd" fill-opacity="1" /><path clip-path="url(#clip540)" d="M1198.03 770.51 L1203.88 770.51 L1203.88 806.158 L1198.03 806.158 L1198.03 770.51 M1198.03 756.633 L1203.88 756.633 L1203.88 764.049 L1198.03 764.049 L1198.03 756.633 Z" fill="#f8f8f2" fill-rule="evenodd" fill-opacity="1" /><path clip-path="url(#clip540)" d="M1243.89 777.353 Q1246.09 773.406 1249.14 771.528 Q1252.2 769.651 1256.34 769.651 Q1261.91 769.651 1264.93 773.565 Q1267.95 777.449 1267.95 784.642 L1267.95 806.158 L1262.07 806.158 L1262.07 784.833 Q1262.07 779.708 1260.25 777.226 Q1258.44 774.743 1254.71 774.743 Q1250.16 774.743 1247.52 777.767 Q1244.88 780.791 1244.88 786.01 L1244.88 806.158 L1238.99 806.158 L1238.99 784.833 Q1238.99 779.677 1237.18 777.226 Q1235.36 774.743 1231.57 774.743 Q1227.09 774.743 1224.45 777.799 Q1221.8 780.822 1221.8 786.01 L1221.8 806.158 L1215.92 806.158 L1215.92 770.51 L1221.8 770.51 L1221.8 776.048 Q1223.81 772.77 1226.61 771.21 Q1229.41 769.651 1233.26 769.651 Q1237.14 769.651 1239.85 771.624 Q1242.59 773.597 1243.89 777.353 Z" fill="#f8f8f2" fill-rule="evenodd" fill-opacity="1" /><path clip-path="url(#clip540)" d="M1310.13 786.87 L1310.13 789.734 L1283.2 789.734 Q1283.58 795.782 1286.83 798.965 Q1290.11 802.116 1295.93 802.116 Q1299.31 802.116 1302.46 801.288 Q1305.64 800.461 1308.76 798.805 L1308.76 804.344 Q1305.61 805.68 1302.3 806.381 Q1298.99 807.081 1295.58 807.081 Q1287.05 807.081 1282.05 802.116 Q1277.09 797.15 1277.09 788.684 Q1277.09 779.931 1281.8 774.807 Q1286.54 769.651 1294.56 769.651 Q1301.76 769.651 1305.93 774.297 Q1310.13 778.913 1310.13 786.87 M1304.27 785.151 Q1304.21 780.345 1301.57 777.48 Q1298.96 774.616 1294.63 774.616 Q1289.73 774.616 1286.77 777.385 Q1283.84 780.154 1283.39 785.183 L1304.27 785.151 Z" fill="#f8f8f2" fill-rule="evenodd" fill-opacity="1" /><path clip-path="url(#clip540)" d="M1339.92 756.633 L1353.41 756.633 L1353.41 761.184 L1345.78 761.184 L1345.78 810.2 L1353.41 810.2 L1353.41 814.752 L1339.92 814.752 L1339.92 756.633 Z" fill="#f8f8f2" fill-rule="evenodd" fill-opacity="1" /><path clip-path="url(#clip540)" d="M1395.52 784.642 L1395.52 806.158 L1389.67 806.158 L1389.67 784.833 Q1389.67 779.772 1387.69 777.258 Q1385.72 774.743 1381.77 774.743 Q1377.03 774.743 1374.29 777.767 Q1371.56 780.791 1371.56 786.01 L1371.56 806.158 L1365.67 806.158 L1365.67 770.51 L1371.56 770.51 L1371.56 776.048 Q1373.66 772.833 1376.49 771.242 Q1379.35 769.651 1383.08 769.651 Q1389.22 769.651 1392.37 773.47 Q1395.52 777.258 1395.52 784.642 Z" fill="#f8f8f2" fill-rule="evenodd" fill-opacity="1" /><path clip-path="url(#clip540)" d="M1429.93 771.56 L1429.93 777.098 Q1427.45 775.825 1424.77 775.189 Q1422.1 774.552 1419.24 774.552 Q1414.88 774.552 1412.68 775.889 Q1410.51 777.226 1410.51 779.899 Q1410.51 781.936 1412.07 783.114 Q1413.63 784.26 1418.34 785.31 L1420.35 785.756 Q1426.59 787.093 1429.2 789.543 Q1431.84 791.962 1431.84 796.323 Q1431.84 801.288 1427.89 804.184 Q1423.98 807.081 1417.1 807.081 Q1414.24 807.081 1411.12 806.508 Q1408.03 805.967 1404.59 804.853 L1404.59 798.805 Q1407.84 800.492 1410.99 801.352 Q1414.14 802.179 1417.23 802.179 Q1421.37 802.179 1423.6 800.779 Q1425.82 799.347 1425.82 796.768 Q1425.82 794.381 1424.2 793.108 Q1422.61 791.835 1417.17 790.657 L1415.13 790.18 Q1409.69 789.034 1407.27 786.679 Q1404.85 784.292 1404.85 780.154 Q1404.85 775.125 1408.41 772.388 Q1411.98 769.651 1418.54 769.651 Q1421.78 769.651 1424.65 770.128 Q1427.51 770.605 1429.93 771.56 Z" fill="#f8f8f2" fill-rule="evenodd" fill-opacity="1" /><path clip-path="url(#clip540)" d="M1454.85 756.633 L1454.85 814.752 L1441.36 814.752 L1441.36 810.2 L1448.96 810.2 L1448.96 761.184 L1441.36 761.184 L1441.36 756.633 L1454.85 756.633 Z" fill="#f8f8f2" fill-rule="evenodd" fill-opacity="1" /><polyline clip-path="url(#clip542)" style="stroke:#f8f8f2; stroke-linecap:round; stroke-linejoin:round; stroke-width:2; stroke-opacity:0.1; fill:none" points="
  255.977,578.986 2352.76,578.986 
  "/>
<polyline clip-path="url(#clip542)" style="stroke:#f8f8f2; stroke-linecap:round; stroke-linejoin:round; stroke-width:2; stroke-opacity:0.1; fill:none" points="
  255.977,485.602 2352.76,485.602 
  "/>
<polyline clip-path="url(#clip542)" style="stroke:#f8f8f2; stroke-linecap:round; stroke-linejoin:round; stroke-width:2; stroke-opacity:0.1; fill:none" points="
  255.977,392.217 2352.76,392.217 
  "/>
<polyline clip-path="url(#clip542)" style="stroke:#f8f8f2; stroke-linecap:round; stroke-linejoin:round; stroke-width:2; stroke-opacity:0.1; fill:none" points="
  255.977,298.833 2352.76,298.833 
  "/>
<polyline clip-path="url(#clip542)" style="stroke:#f8f8f2; stroke-linecap:round; stroke-linejoin:round; stroke-width:2; stroke-opacity:0.1; fill:none" points="
  255.977,205.449 2352.76,205.449 
  "/>
<polyline clip-path="url(#clip540)" style="stroke:#f8f8f2; stroke-linecap:round; stroke-linejoin:round; stroke-width:4; stroke-opacity:1; fill:none" points="
  255.977,661.294 255.977,123.472 
  "/>
<polyline clip-path="url(#clip540)" style="stroke:#f8f8f2; stroke-linecap:round; stroke-linejoin:round; stroke-width:4; stroke-opacity:1; fill:none" points="
  255.977,578.986 274.875,578.986 
  "/>
<polyline clip-path="url(#clip540)" style="stroke:#f8f8f2; stroke-linecap:round; stroke-linejoin:round; stroke-width:4; stroke-opacity:1; fill:none" points="
  255.977,485.602 274.875,485.602 
  "/>
<polyline clip-path="url(#clip540)" style="stroke:#f8f8f2; stroke-linecap:round; stroke-linejoin:round; stroke-width:4; stroke-opacity:1; fill:none" points="
  255.977,392.217 274.875,392.217 
  "/>
<polyline clip-path="url(#clip540)" style="stroke:#f8f8f2; stroke-linecap:round; stroke-linejoin:round; stroke-width:4; stroke-opacity:1; fill:none" points="
  255.977,298.833 274.875,298.833 
  "/>
<polyline clip-path="url(#clip540)" style="stroke:#f8f8f2; stroke-linecap:round; stroke-linejoin:round; stroke-width:4; stroke-opacity:1; fill:none" points="
  255.977,205.449 274.875,205.449 
  "/>
<path clip-path="url(#clip540)" d="M114.631 579.437 L144.306 579.437 L144.306 583.373 L114.631 583.373 L114.631 579.437 Z" fill="#f8f8f2" fill-rule="evenodd" fill-opacity="1" /><path clip-path="url(#clip540)" d="M164.399 564.785 Q160.788 564.785 158.959 568.349 Q157.153 571.891 157.153 579.021 Q157.153 586.127 158.959 589.692 Q160.788 593.234 164.399 593.234 Q168.033 593.234 169.839 589.692 Q171.667 586.127 171.667 579.021 Q171.667 571.891 169.839 568.349 Q168.033 564.785 164.399 564.785 M164.399 561.081 Q170.209 561.081 173.264 565.687 Q176.343 570.271 176.343 579.021 Q176.343 587.748 173.264 592.354 Q170.209 596.937 164.399 596.937 Q158.589 596.937 155.51 592.354 Q152.454 587.748 152.454 579.021 Q152.454 570.271 155.51 565.687 Q158.589 561.081 164.399 561.081 Z" fill="#f8f8f2" fill-rule="evenodd" fill-opacity="1" /><path clip-path="url(#clip540)" d="M184.561 590.386 L189.445 590.386 L189.445 596.266 L184.561 596.266 L184.561 590.386 Z" fill="#f8f8f2" fill-rule="evenodd" fill-opacity="1" /><path clip-path="url(#clip540)" d="M203.658 592.331 L219.977 592.331 L219.977 596.266 L198.033 596.266 L198.033 592.331 Q200.695 589.576 205.278 584.947 Q209.885 580.294 211.065 578.951 Q213.311 576.428 214.19 574.692 Q215.093 572.933 215.093 571.243 Q215.093 568.488 213.149 566.752 Q211.227 565.016 208.125 565.016 Q205.926 565.016 203.473 565.78 Q201.042 566.544 198.264 568.095 L198.264 563.373 Q201.088 562.238 203.542 561.66 Q205.996 561.081 208.033 561.081 Q213.403 561.081 216.598 563.766 Q219.792 566.451 219.792 570.942 Q219.792 573.072 218.982 574.993 Q218.195 576.891 216.088 579.484 Q215.51 580.155 212.408 583.373 Q209.306 586.567 203.658 592.331 Z" fill="#f8f8f2" fill-rule="evenodd" fill-opacity="1" /><path clip-path="url(#clip540)" d="M114.26 486.053 L143.936 486.053 L143.936 489.988 L114.26 489.988 L114.26 486.053 Z" fill="#f8f8f2" fill-rule="evenodd" fill-opacity="1" /><path clip-path="url(#clip540)" d="M164.028 471.4 Q160.417 471.4 158.589 474.965 Q156.783 478.507 156.783 485.636 Q156.783 492.743 158.589 496.308 Q160.417 499.849 164.028 499.849 Q167.663 499.849 169.468 496.308 Q171.297 492.743 171.297 485.636 Q171.297 478.507 169.468 474.965 Q167.663 471.4 164.028 471.4 M164.028 467.697 Q169.839 467.697 172.894 472.303 Q175.973 476.886 175.973 485.636 Q175.973 494.363 172.894 498.97 Q169.839 503.553 164.028 503.553 Q158.218 503.553 155.14 498.97 Q152.084 494.363 152.084 485.636 Q152.084 476.886 155.14 472.303 Q158.218 467.697 164.028 467.697 Z" fill="#f8f8f2" fill-rule="evenodd" fill-opacity="1" /><path clip-path="url(#clip540)" d="M184.19 497.002 L189.075 497.002 L189.075 502.882 L184.19 502.882 L184.19 497.002 Z" fill="#f8f8f2" fill-rule="evenodd" fill-opacity="1" /><path clip-path="url(#clip540)" d="M200.07 498.946 L207.709 498.946 L207.709 472.581 L199.399 474.248 L199.399 469.988 L207.662 468.322 L212.338 468.322 L212.338 498.946 L219.977 498.946 L219.977 502.882 L200.07 502.882 L200.07 498.946 Z" fill="#f8f8f2" fill-rule="evenodd" fill-opacity="1" /><path clip-path="url(#clip540)" d="M162.802 378.016 Q159.19 378.016 157.362 381.581 Q155.556 385.122 155.556 392.252 Q155.556 399.358 157.362 402.923 Q159.19 406.465 162.802 406.465 Q166.436 406.465 168.241 402.923 Q170.07 399.358 170.07 392.252 Q170.07 385.122 168.241 381.581 Q166.436 378.016 162.802 378.016 M162.802 374.312 Q168.612 374.312 171.667 378.919 Q174.746 383.502 174.746 392.252 Q174.746 400.979 171.667 405.585 Q168.612 410.169 162.802 410.169 Q156.991 410.169 153.913 405.585 Q150.857 400.979 150.857 392.252 Q150.857 383.502 153.913 378.919 Q156.991 374.312 162.802 374.312 Z" fill="#f8f8f2" fill-rule="evenodd" fill-opacity="1" /><path clip-path="url(#clip540)" d="M182.963 403.618 L187.848 403.618 L187.848 409.497 L182.963 409.497 L182.963 403.618 Z" fill="#f8f8f2" fill-rule="evenodd" fill-opacity="1" /><path clip-path="url(#clip540)" d="M208.033 378.016 Q204.422 378.016 202.593 381.581 Q200.787 385.122 200.787 392.252 Q200.787 399.358 202.593 402.923 Q204.422 406.465 208.033 406.465 Q211.667 406.465 213.473 402.923 Q215.301 399.358 215.301 392.252 Q215.301 385.122 213.473 381.581 Q211.667 378.016 208.033 378.016 M208.033 374.312 Q213.843 374.312 216.898 378.919 Q219.977 383.502 219.977 392.252 Q219.977 400.979 216.898 405.585 Q213.843 410.169 208.033 410.169 Q202.223 410.169 199.144 405.585 Q196.088 400.979 196.088 392.252 Q196.088 383.502 199.144 378.919 Q202.223 374.312 208.033 374.312 Z" fill="#f8f8f2" fill-rule="evenodd" fill-opacity="1" /><path clip-path="url(#clip540)" d="M164.028 284.632 Q160.417 284.632 158.589 288.196 Q156.783 291.738 156.783 298.868 Q156.783 305.974 158.589 309.539 Q160.417 313.081 164.028 313.081 Q167.663 313.081 169.468 309.539 Q171.297 305.974 171.297 298.868 Q171.297 291.738 169.468 288.196 Q167.663 284.632 164.028 284.632 M164.028 280.928 Q169.839 280.928 172.894 285.534 Q175.973 290.118 175.973 298.868 Q175.973 307.594 172.894 312.201 Q169.839 316.784 164.028 316.784 Q158.218 316.784 155.14 312.201 Q152.084 307.594 152.084 298.868 Q152.084 290.118 155.14 285.534 Q158.218 280.928 164.028 280.928 Z" fill="#f8f8f2" fill-rule="evenodd" fill-opacity="1" /><path clip-path="url(#clip540)" d="M184.19 310.233 L189.075 310.233 L189.075 316.113 L184.19 316.113 L184.19 310.233 Z" fill="#f8f8f2" fill-rule="evenodd" fill-opacity="1" /><path clip-path="url(#clip540)" d="M200.07 312.178 L207.709 312.178 L207.709 285.812 L199.399 287.479 L199.399 283.22 L207.662 281.553 L212.338 281.553 L212.338 312.178 L219.977 312.178 L219.977 316.113 L200.07 316.113 L200.07 312.178 Z" fill="#f8f8f2" fill-rule="evenodd" fill-opacity="1" /><path clip-path="url(#clip540)" d="M164.399 191.247 Q160.788 191.247 158.959 194.812 Q157.153 198.354 157.153 205.483 Q157.153 212.59 158.959 216.155 Q160.788 219.696 164.399 219.696 Q168.033 219.696 169.839 216.155 Q171.667 212.59 171.667 205.483 Q171.667 198.354 169.839 194.812 Q168.033 191.247 164.399 191.247 M164.399 187.544 Q170.209 187.544 173.264 192.15 Q176.343 196.733 176.343 205.483 Q176.343 214.21 173.264 218.817 Q170.209 223.4 164.399 223.4 Q158.589 223.4 155.51 218.817 Q152.454 214.21 152.454 205.483 Q152.454 196.733 155.51 192.15 Q158.589 187.544 164.399 187.544 Z" fill="#f8f8f2" fill-rule="evenodd" fill-opacity="1" /><path clip-path="url(#clip540)" d="M184.561 216.849 L189.445 216.849 L189.445 222.729 L184.561 222.729 L184.561 216.849 Z" fill="#f8f8f2" fill-rule="evenodd" fill-opacity="1" /><path clip-path="url(#clip540)" d="M203.658 218.793 L219.977 218.793 L219.977 222.729 L198.033 222.729 L198.033 218.793 Q200.695 216.039 205.278 211.409 Q209.885 206.756 211.065 205.414 Q213.311 202.891 214.19 201.155 Q215.093 199.395 215.093 197.706 Q215.093 194.951 213.149 193.215 Q211.227 191.479 208.125 191.479 Q205.926 191.479 203.473 192.243 Q201.042 193.007 198.264 194.557 L198.264 189.835 Q201.088 188.701 203.542 188.122 Q205.996 187.544 208.033 187.544 Q213.403 187.544 216.598 190.229 Q219.792 192.914 219.792 197.405 Q219.792 199.534 218.982 201.456 Q218.195 203.354 216.088 205.946 Q215.51 206.618 212.408 209.835 Q209.306 213.03 203.658 218.793 Z" fill="#f8f8f2" fill-rule="evenodd" fill-opacity="1" /><path clip-path="url(#clip540)" d="M22.818 535.643 L46.4666 544.364 L46.4666 526.89 L22.818 535.643 M16.4842 539.272 L16.4842 531.983 L64.0042 513.873 L64.0042 520.556 L51.8138 524.885 L51.8138 546.306 L64.0042 550.634 L64.0042 557.414 L16.4842 539.272 Z" fill="#f8f8f2" fill-rule="evenodd" fill-opacity="1" /><path clip-path="url(#clip540)" d="M35.1993 479.434 Q31.2526 477.238 29.3747 474.182 Q27.4968 471.127 27.4968 466.989 Q27.4968 461.419 31.4117 458.395 Q35.2948 455.372 42.4881 455.372 L64.0042 455.372 L64.0042 461.26 L42.679 461.26 Q37.5546 461.26 35.072 463.074 Q32.5894 464.888 32.5894 468.612 Q32.5894 473.164 35.6131 475.806 Q38.6368 478.447 43.8567 478.447 L64.0042 478.447 L64.0042 484.336 L42.679 484.336 Q37.5228 484.336 35.072 486.15 Q32.5894 487.964 32.5894 491.752 Q32.5894 496.239 35.6449 498.881 Q38.6686 501.523 43.8567 501.523 L64.0042 501.523 L64.0042 507.411 L28.3562 507.411 L28.3562 501.523 L33.8944 501.523 Q30.616 499.518 29.0564 496.717 Q27.4968 493.916 27.4968 490.065 Q27.4968 486.182 29.4702 483.476 Q31.4436 480.739 35.1993 479.434 Z" fill="#f8f8f2" fill-rule="evenodd" fill-opacity="1" /><path clip-path="url(#clip540)" d="M58.657 438.025 L77.5631 438.025 L77.5631 443.913 L28.3562 443.913 L28.3562 438.025 L33.7671 438.025 Q30.5842 436.179 29.0564 433.378 Q27.4968 430.545 27.4968 426.63 Q27.4968 420.137 32.6531 416.095 Q37.8093 412.021 46.212 412.021 Q54.6147 412.021 59.771 416.095 Q64.9272 420.137 64.9272 426.63 Q64.9272 430.545 63.3994 433.378 Q61.8398 436.179 58.657 438.025 M46.212 418.1 Q39.7508 418.1 36.0905 420.774 Q32.3984 423.416 32.3984 428.063 Q32.3984 432.71 36.0905 435.383 Q39.7508 438.025 46.212 438.025 Q52.6732 438.025 56.3653 435.383 Q60.0256 432.71 60.0256 428.063 Q60.0256 423.416 56.3653 420.774 Q52.6732 418.1 46.212 418.1 Z" fill="#f8f8f2" fill-rule="evenodd" fill-opacity="1" /><path clip-path="url(#clip540)" d="M14.479 402.313 L14.479 396.457 L64.0042 396.457 L64.0042 402.313 L14.479 402.313 Z" fill="#f8f8f2" fill-rule="evenodd" fill-opacity="1" /><path clip-path="url(#clip540)" d="M28.3562 384.203 L28.3562 378.347 L64.0042 378.347 L64.0042 384.203 L28.3562 384.203 M14.479 384.203 L14.479 378.347 L21.895 378.347 L21.895 384.203 L14.479 384.203 Z" fill="#f8f8f2" fill-rule="evenodd" fill-opacity="1" /><path clip-path="url(#clip540)" d="M18.2347 360.3 L28.3562 360.3 L28.3562 348.237 L32.9077 348.237 L32.9077 360.3 L52.2594 360.3 Q56.6199 360.3 57.8613 359.122 Q59.1026 357.913 59.1026 354.252 L59.1026 348.237 L64.0042 348.237 L64.0042 354.252 Q64.0042 361.032 61.4897 363.61 Q58.9434 366.188 52.2594 366.188 L32.9077 366.188 L32.9077 370.485 L28.3562 370.485 L28.3562 366.188 L18.2347 366.188 L18.2347 360.3 Z" fill="#f8f8f2" fill-rule="evenodd" fill-opacity="1" /><path clip-path="url(#clip540)" d="M49.9359 341.139 L28.3562 341.139 L28.3562 335.283 L49.7131 335.283 Q54.7739 335.283 57.3202 333.309 Q59.8346 331.336 59.8346 327.389 Q59.8346 322.647 56.8109 319.909 Q53.7872 317.14 48.5673 317.14 L28.3562 317.14 L28.3562 311.284 L64.0042 311.284 L64.0042 317.14 L58.5296 317.14 Q61.7762 319.273 63.3676 322.106 Q64.9272 324.907 64.9272 328.63 Q64.9272 334.773 61.1078 337.956 Q57.2883 341.139 49.9359 341.139 M27.4968 326.402 L27.4968 326.402 Z" fill="#f8f8f2" fill-rule="evenodd" fill-opacity="1" /><path clip-path="url(#clip540)" d="M33.7671 275.763 L14.479 275.763 L14.479 269.907 L64.0042 269.907 L64.0042 275.763 L58.657 275.763 Q61.8398 277.609 63.3994 280.442 Q64.9272 283.243 64.9272 287.19 Q64.9272 293.651 59.771 297.725 Q54.6147 301.767 46.212 301.767 Q37.8093 301.767 32.6531 297.725 Q27.4968 293.651 27.4968 287.19 Q27.4968 283.243 29.0564 280.442 Q30.5842 277.609 33.7671 275.763 M46.212 295.72 Q52.6732 295.72 56.3653 293.078 Q60.0256 290.404 60.0256 285.757 Q60.0256 281.11 56.3653 278.437 Q52.6732 275.763 46.212 275.763 Q39.7508 275.763 36.0905 278.437 Q32.3984 281.11 32.3984 285.757 Q32.3984 290.404 36.0905 293.078 Q39.7508 295.72 46.212 295.72 Z" fill="#f8f8f2" fill-rule="evenodd" fill-opacity="1" /><path clip-path="url(#clip540)" d="M44.7161 227.352 L47.5806 227.352 L47.5806 254.279 Q53.6281 253.897 56.8109 250.651 Q59.9619 247.372 59.9619 241.548 Q59.9619 238.174 59.1344 235.023 Q58.3069 231.84 56.6518 228.721 L62.1899 228.721 Q63.5267 231.872 64.227 235.182 Q64.9272 238.492 64.9272 241.898 Q64.9272 250.428 59.9619 255.425 Q54.9967 260.39 46.5303 260.39 Q37.7774 260.39 32.6531 255.679 Q27.4968 250.937 27.4968 242.916 Q27.4968 235.723 32.1438 231.553 Q36.7589 227.352 44.7161 227.352 M42.9973 233.208 Q38.1912 233.272 35.3266 235.914 Q32.4621 238.524 32.4621 242.853 Q32.4621 247.754 35.2312 250.714 Q38.0002 253.642 43.0292 254.088 L42.9973 233.208 Z" fill="#f8f8f2" fill-rule="evenodd" fill-opacity="1" /><path clip-path="url(#clip540)" d="M1187.8 18.8205 L1187.8 41.5461 L1198.09 41.5461 Q1203.8 41.5461 1206.92 38.5889 Q1210.04 35.6318 1210.04 30.163 Q1210.04 24.7348 1206.92 21.7777 Q1203.8 18.8205 1198.09 18.8205 L1187.8 18.8205 M1179.62 12.096 L1198.09 12.096 Q1208.26 12.096 1213.44 16.714 Q1218.67 21.2916 1218.67 30.163 Q1218.67 39.1155 1213.44 43.6931 Q1208.26 48.2706 1198.09 48.2706 L1187.8 48.2706 L1187.8 72.576 L1179.62 72.576 L1179.62 12.096 Z" fill="#f8f8f2" fill-rule="evenodd" fill-opacity="1" /><path clip-path="url(#clip540)" d="M1227.1 54.671 L1227.1 27.2059 L1234.55 27.2059 L1234.55 54.3874 Q1234.55 60.8284 1237.06 64.0691 Q1239.57 67.2693 1244.6 67.2693 Q1250.63 67.2693 1254.12 63.421 Q1257.64 59.5726 1257.64 52.9291 L1257.64 27.2059 L1265.09 27.2059 L1265.09 72.576 L1257.64 72.576 L1257.64 65.6084 Q1254.93 69.7404 1251.32 71.7658 Q1247.76 73.7508 1243.02 73.7508 Q1235.2 73.7508 1231.15 68.8897 Q1227.1 64.0286 1227.1 54.671 M1245.85 26.1121 L1245.85 26.1121 Z" fill="#f8f8f2" fill-rule="evenodd" fill-opacity="1" /><path clip-path="url(#clip540)" d="M1280.45 9.54393 L1287.9 9.54393 L1287.9 72.576 L1280.45 72.576 L1280.45 9.54393 Z" fill="#f8f8f2" fill-rule="evenodd" fill-opacity="1" /><path clip-path="url(#clip540)" d="M1332.42 28.5427 L1332.42 35.5912 Q1329.26 33.9709 1325.86 33.1607 Q1322.45 32.3505 1318.81 32.3505 Q1313.26 32.3505 1310.46 34.0519 Q1307.71 35.7533 1307.71 39.156 Q1307.71 41.7486 1309.69 43.2475 Q1311.68 44.7058 1317.67 46.0426 L1320.23 46.6097 Q1328.17 48.3111 1331.49 51.4303 Q1334.85 54.509 1334.85 60.0587 Q1334.85 66.3781 1329.83 70.0644 Q1324.84 73.7508 1316.09 73.7508 Q1312.45 73.7508 1308.48 73.0216 Q1304.55 72.3329 1300.17 70.9151 L1300.17 63.2184 Q1304.31 65.3654 1308.32 66.4591 Q1312.33 67.5124 1316.26 67.5124 Q1321.52 67.5124 1324.36 65.73 Q1327.19 63.9071 1327.19 60.6258 Q1327.19 57.5877 1325.13 55.9673 Q1323.1 54.3469 1316.17 52.8481 L1313.58 52.2405 Q1306.66 50.7821 1303.58 47.7845 Q1300.5 44.7463 1300.5 39.4801 Q1300.5 33.0797 1305.03 29.5959 Q1309.57 26.1121 1317.92 26.1121 Q1322.05 26.1121 1325.69 26.7198 Q1329.34 27.3274 1332.42 28.5427 Z" fill="#f8f8f2" fill-rule="evenodd" fill-opacity="1" /><path clip-path="url(#clip540)" d="M1385.53 48.0275 L1385.53 51.6733 L1351.26 51.6733 Q1351.74 59.3701 1355.87 63.421 Q1360.05 67.4314 1367.46 67.4314 Q1371.75 67.4314 1375.76 66.3781 Q1379.81 65.3249 1383.78 63.2184 L1383.78 70.267 Q1379.77 71.9684 1375.56 72.8596 Q1371.35 73.7508 1367.01 73.7508 Q1356.16 73.7508 1349.8 67.4314 Q1343.48 61.1119 1343.48 50.3365 Q1343.48 39.1965 1349.47 32.6746 Q1355.51 26.1121 1365.72 26.1121 Q1374.87 26.1121 1380.18 32.0264 Q1385.53 37.9003 1385.53 48.0275 M1378.07 45.84 Q1377.99 39.7232 1374.63 36.0774 Q1371.31 32.4315 1365.8 32.4315 Q1359.56 32.4315 1355.79 35.9558 Q1352.07 39.4801 1351.5 45.8805 L1378.07 45.84 Z" fill="#f8f8f2" fill-rule="evenodd" fill-opacity="1" /><path clip-path="url(#clip540)" d="M1426.68 28.5427 L1426.68 35.5912 Q1423.52 33.9709 1420.12 33.1607 Q1416.72 32.3505 1413.07 32.3505 Q1407.52 32.3505 1404.73 34.0519 Q1401.97 35.7533 1401.97 39.156 Q1401.97 41.7486 1403.96 43.2475 Q1405.94 44.7058 1411.94 46.0426 L1414.49 46.6097 Q1422.43 48.3111 1425.75 51.4303 Q1429.11 54.509 1429.11 60.0587 Q1429.11 66.3781 1424.09 70.0644 Q1419.11 73.7508 1410.36 73.7508 Q1406.71 73.7508 1402.74 73.0216 Q1398.81 72.3329 1394.44 70.9151 L1394.44 63.2184 Q1398.57 65.3654 1402.58 66.4591 Q1406.59 67.5124 1410.52 67.5124 Q1415.79 67.5124 1418.62 65.73 Q1421.46 63.9071 1421.46 60.6258 Q1421.46 57.5877 1419.39 55.9673 Q1417.37 54.3469 1410.44 52.8481 L1407.85 52.2405 Q1400.92 50.7821 1397.84 47.7845 Q1394.76 44.7463 1394.76 39.4801 Q1394.76 33.0797 1399.3 29.5959 Q1403.84 26.1121 1412.18 26.1121 Q1416.31 26.1121 1419.96 26.7198 Q1423.6 27.3274 1426.68 28.5427 Z" fill="#f8f8f2" fill-rule="evenodd" fill-opacity="1" /><polyline clip-path="url(#clip542)" style="stroke:#8be9fd; stroke-linecap:round; stroke-linejoin:round; stroke-width:4; stroke-opacity:1; fill:none" points="
  315.32,163.622 335.301,179.856 355.281,196.722 375.262,213.656 395.243,230.135 415.224,245.692 435.204,259.928 455.185,272.517 475.166,283.206 495.147,291.818 
  515.127,298.244 535.108,302.438 555.089,304.412 575.07,304.229 595.05,301.996 615.031,297.859 635.012,291.994 654.993,284.609 674.973,275.934 694.954,266.218 
  714.935,255.726 734.915,244.735 754.896,233.529 774.877,222.393 794.858,211.611 814.838,201.456 834.819,192.186 854.8,184.037 874.781,177.214 894.761,171.889 
  914.742,168.191 934.723,166.202 954.704,165.955 974.684,167.43 994.665,170.557 1014.65,175.216 1034.63,181.239 1054.61,188.42 1074.59,196.522 1094.57,205.281 
  1114.55,214.417 1134.53,223.647 1154.51,232.686 1174.49,241.263 1194.47,249.124 1214.45,256.04 1234.43,261.814 1254.41,266.281 1274.4,269.317 1294.38,270.836 
  1314.36,270.798 1334.34,269.202 1354.32,266.092 1374.3,261.555 1394.28,255.716 1414.26,248.739 1434.24,240.825 1454.22,232.201 1474.2,223.121 1494.18,213.857 
  1514.16,204.69 1534.15,195.905 1554.13,187.779 1574.11,180.575 1594.09,174.53 1614.07,169.849 1634.05,166.696 1654.03,165.192 1674.01,165.406 1693.99,167.357 
  1713.97,171.013 1733.95,176.291 1753.93,183.062 1773.91,191.156 1793.89,200.369 1813.88,210.466 1833.86,221.191 1853.84,232.274 1873.82,243.433 1893.8,254.384 
  1913.78,264.847 1933.76,274.547 1953.74,283.22 1973.72,290.617 1993.7,296.51 2013.68,300.692 2033.66,302.982 2053.64,303.235 2073.62,301.34 2093.61,297.23 
  2113.59,290.889 2133.57,282.357 2153.55,271.738 2173.53,259.205 2193.51,245.005 2213.49,229.459 2233.47,212.966 2253.45,195.991 2273.43,179.059 2293.41,162.738 
  
  "/>
<polyline clip-path="url(#clip542)" style="stroke:#ff79c6; stroke-linecap:round; stroke-linejoin:round; stroke-width:4; stroke-opacity:1; fill:none" points="
  315.32,151.444 335.301,144.014 355.281,139.771 375.262,138.693 395.243,140.664 415.224,145.477 435.204,152.862 455.185,162.497 475.166,174.023 495.147,187.066 
  515.127,201.24 535.108,216.166 555.089,231.475 575.07,246.816 595.05,261.862 615.031,276.312 635.012,289.895 654.993,302.371 674.973,313.536 694.954,323.218 
  714.935,331.286 734.915,337.647 754.896,342.25 774.877,345.087 794.858,346.194 814.838,345.652 834.819,343.585 854.8,340.162 874.781,335.589 894.761,330.111 
  914.742,323.998 934.723,317.545 954.704,311.059 974.684,304.851 994.665,299.223 1014.65,294.465 1034.63,290.838 1054.61,288.568 1074.59,287.839 1094.57,288.789 
  1114.55,291.503 1134.53,296.012 1154.51,302.296 1174.49,310.282 1194.47,319.848 1214.45,330.831 1234.43,343.027 1254.41,356.202 1274.4,370.095 1294.38,384.427 
  1314.36,398.91 1334.34,413.25 1354.32,427.157 1374.3,440.352 1394.28,452.577 1414.26,463.594 1434.24,473.201 1454.22,481.233 1474.2,487.569 1494.18,492.134 
  1514.16,494.908 1534.15,495.92 1554.13,495.257 1574.11,493.053 1594.09,489.493 1614.07,484.802 1634.05,479.24 1654.03,473.095 1674.01,466.669 1693.99,460.271 
  1713.97,454.209 1733.95,448.774 1753.93,444.237 1773.91,440.841 1793.89,438.792 1813.88,438.258 1833.86,439.363 1853.84,442.187 1873.82,446.769 1893.8,453.099 
  1913.78,461.13 1933.76,470.769 1953.74,481.888 1973.72,494.32 1993.7,507.861 2013.68,522.277 2033.66,537.299 2053.64,552.629 2073.62,567.944 2093.61,582.894 
  2113.59,597.112 2133.57,610.218 2153.55,621.826 2173.53,631.559 2193.51,639.054 2213.49,643.984 2233.47,646.072 2253.45,645.107 2273.43,640.963 2293.41,633.614 
  
  "/>
<path clip-path="url(#clip540)" d="
M325.87 643.366 L560.779 643.366 L560.779 487.846 L325.87 487.846  Z
  " fill="#282a36" fill-rule="evenodd" fill-opacity="1"/>
<polyline clip-path="url(#clip540)" style="stroke:#f8f8f2; stroke-linecap:round; stroke-linejoin:round; stroke-width:4; stroke-opacity:1; fill:none" points="
  325.87,643.366 560.779,643.366 560.779,487.846 325.87,487.846 325.87,643.366 
  "/>
<polyline clip-path="url(#clip540)" style="stroke:#8be9fd; stroke-linecap:round; stroke-linejoin:round; stroke-width:4; stroke-opacity:1; fill:none" points="
  349.167,539.686 488.953,539.686 
  "/>
<path clip-path="url(#clip540)" d="M536.903 531.041 L527.528 543.656 L537.389 556.966 L532.366 556.966 L524.82 546.781 L517.273 556.966 L512.25 556.966 L522.32 543.402 L513.107 531.041 L518.13 531.041 L525.005 540.277 L531.88 531.041 L536.903 531.041 Z" fill="#f8f8f2" fill-rule="evenodd" fill-opacity="1" /><polyline clip-path="url(#clip540)" style="stroke:#ff79c6; stroke-linecap:round; stroke-linejoin:round; stroke-width:4; stroke-opacity:1; fill:none" points="
  349.167,591.526 488.953,591.526 
  "/>
<path clip-path="url(#clip540)" d="M526.093 611.214 Q524.287 615.843 522.574 617.255 Q520.861 618.668 517.991 618.668 L514.588 618.668 L514.588 615.103 L517.088 615.103 Q518.847 615.103 519.82 614.269 Q520.792 613.436 521.972 610.334 L522.736 608.39 L512.25 582.881 L516.764 582.881 L524.866 603.158 L532.968 582.881 L537.481 582.881 L526.093 611.214 Z" fill="#f8f8f2" fill-rule="evenodd" fill-opacity="1" /><path clip-path="url(#clip540)" d="
M255.977 1423.18 L2352.76 1423.18 L2352.76 885.358 L255.977 885.358  Z
  " fill="#30343b" fill-rule="evenodd" fill-opacity="1"/>
<defs>
  <clipPath id="clip543">
    <rect x="255" y="885" width="2098" height="539"/>
  </clipPath>
</defs>
<polyline clip-path="url(#clip543)" style="stroke:#f8f8f2; stroke-linecap:round; stroke-linejoin:round; stroke-width:2; stroke-opacity:0.1; fill:none" points="
  315.32,1423.18 315.32,885.358 
  "/>
<polyline clip-path="url(#clip543)" style="stroke:#f8f8f2; stroke-linecap:round; stroke-linejoin:round; stroke-width:2; stroke-opacity:0.1; fill:none" points="
  809.843,1423.18 809.843,885.358 
  "/>
<polyline clip-path="url(#clip543)" style="stroke:#f8f8f2; stroke-linecap:round; stroke-linejoin:round; stroke-width:2; stroke-opacity:0.1; fill:none" points="
  1304.37,1423.18 1304.37,885.358 
  "/>
<polyline clip-path="url(#clip543)" style="stroke:#f8f8f2; stroke-linecap:round; stroke-linejoin:round; stroke-width:2; stroke-opacity:0.1; fill:none" points="
  1798.89,1423.18 1798.89,885.358 
  "/>
<polyline clip-path="url(#clip543)" style="stroke:#f8f8f2; stroke-linecap:round; stroke-linejoin:round; stroke-width:2; stroke-opacity:0.1; fill:none" points="
  2293.41,1423.18 2293.41,885.358 
  "/>
<polyline clip-path="url(#clip540)" style="stroke:#f8f8f2; stroke-linecap:round; stroke-linejoin:round; stroke-width:4; stroke-opacity:1; fill:none" points="
  255.977,1423.18 2352.76,1423.18 
  "/>
<polyline clip-path="url(#clip540)" style="stroke:#f8f8f2; stroke-linecap:round; stroke-linejoin:round; stroke-width:4; stroke-opacity:1; fill:none" points="
  315.32,1423.18 315.32,1404.28 
  "/>
<polyline clip-path="url(#clip540)" style="stroke:#f8f8f2; stroke-linecap:round; stroke-linejoin:round; stroke-width:4; stroke-opacity:1; fill:none" points="
  809.843,1423.18 809.843,1404.28 
  "/>
<polyline clip-path="url(#clip540)" style="stroke:#f8f8f2; stroke-linecap:round; stroke-linejoin:round; stroke-width:4; stroke-opacity:1; fill:none" points="
  1304.37,1423.18 1304.37,1404.28 
  "/>
<polyline clip-path="url(#clip540)" style="stroke:#f8f8f2; stroke-linecap:round; stroke-linejoin:round; stroke-width:4; stroke-opacity:1; fill:none" points="
  1798.89,1423.18 1798.89,1404.28 
  "/>
<polyline clip-path="url(#clip540)" style="stroke:#f8f8f2; stroke-linecap:round; stroke-linejoin:round; stroke-width:4; stroke-opacity:1; fill:none" points="
  2293.41,1423.18 2293.41,1404.28 
  "/>
<path clip-path="url(#clip540)" d="M292.704 1454.1 Q289.093 1454.1 287.265 1457.66 Q285.459 1461.2 285.459 1468.33 Q285.459 1475.44 287.265 1479.01 Q289.093 1482.55 292.704 1482.55 Q296.339 1482.55 298.144 1479.01 Q299.973 1475.44 299.973 1468.33 Q299.973 1461.2 298.144 1457.66 Q296.339 1454.1 292.704 1454.1 M292.704 1450.39 Q298.515 1450.39 301.57 1455 Q304.649 1459.58 304.649 1468.33 Q304.649 1477.06 301.57 1481.67 Q298.515 1486.25 292.704 1486.25 Q286.894 1486.25 283.816 1481.67 Q280.76 1477.06 280.76 1468.33 Q280.76 1459.58 283.816 1455 Q286.894 1450.39 292.704 1450.39 Z" fill="#f8f8f2" fill-rule="evenodd" fill-opacity="1" /><path clip-path="url(#clip540)" d="M312.866 1479.7 L317.751 1479.7 L317.751 1485.58 L312.866 1485.58 L312.866 1479.7 Z" fill="#f8f8f2" fill-rule="evenodd" fill-opacity="1" /><path clip-path="url(#clip540)" d="M337.936 1454.1 Q334.325 1454.1 332.496 1457.66 Q330.69 1461.2 330.69 1468.33 Q330.69 1475.44 332.496 1479.01 Q334.325 1482.55 337.936 1482.55 Q341.57 1482.55 343.375 1479.01 Q345.204 1475.44 345.204 1468.33 Q345.204 1461.2 343.375 1457.66 Q341.57 1454.1 337.936 1454.1 M337.936 1450.39 Q343.746 1450.39 346.801 1455 Q349.88 1459.58 349.88 1468.33 Q349.88 1477.06 346.801 1481.67 Q343.746 1486.25 337.936 1486.25 Q332.125 1486.25 329.047 1481.67 Q325.991 1477.06 325.991 1468.33 Q325.991 1459.58 329.047 1455 Q332.125 1450.39 337.936 1450.39 Z" fill="#f8f8f2" fill-rule="evenodd" fill-opacity="1" /><path clip-path="url(#clip540)" d="M781.58 1481.64 L797.899 1481.64 L797.899 1485.58 L775.955 1485.58 L775.955 1481.64 Q778.617 1478.89 783.2 1474.26 Q787.806 1469.61 788.987 1468.27 Q791.232 1465.74 792.112 1464.01 Q793.015 1462.25 793.015 1460.56 Q793.015 1457.8 791.07 1456.07 Q789.149 1454.33 786.047 1454.33 Q783.848 1454.33 781.394 1455.09 Q778.964 1455.86 776.186 1457.41 L776.186 1452.69 Q779.01 1451.55 781.464 1450.97 Q783.917 1450.39 785.955 1450.39 Q791.325 1450.39 794.519 1453.08 Q797.714 1455.77 797.714 1460.26 Q797.714 1462.39 796.904 1464.31 Q796.116 1466.2 794.01 1468.8 Q793.431 1469.47 790.329 1472.69 Q787.228 1475.88 781.58 1481.64 Z" fill="#f8f8f2" fill-rule="evenodd" fill-opacity="1" /><path clip-path="url(#clip540)" d="M807.714 1479.7 L812.598 1479.7 L812.598 1485.58 L807.714 1485.58 L807.714 1479.7 Z" fill="#f8f8f2" fill-rule="evenodd" fill-opacity="1" /><path clip-path="url(#clip540)" d="M822.829 1451.02 L841.186 1451.02 L841.186 1454.96 L827.112 1454.96 L827.112 1463.43 Q828.13 1463.08 829.149 1462.92 Q830.167 1462.73 831.186 1462.73 Q836.973 1462.73 840.352 1465.9 Q843.732 1469.08 843.732 1474.49 Q843.732 1480.07 840.26 1483.17 Q836.788 1486.25 830.468 1486.25 Q828.292 1486.25 826.024 1485.88 Q823.778 1485.51 821.371 1484.77 L821.371 1480.07 Q823.454 1481.2 825.677 1481.76 Q827.899 1482.32 830.376 1482.32 Q834.38 1482.32 836.718 1480.21 Q839.056 1478.1 839.056 1474.49 Q839.056 1470.88 836.718 1468.77 Q834.38 1466.67 830.376 1466.67 Q828.501 1466.67 826.626 1467.08 Q824.774 1467.5 822.829 1468.38 L822.829 1451.02 Z" fill="#f8f8f2" fill-rule="evenodd" fill-opacity="1" /><path clip-path="url(#clip540)" d="M1271.53 1451.02 L1289.89 1451.02 L1289.89 1454.96 L1275.81 1454.96 L1275.81 1463.43 Q1276.83 1463.08 1277.85 1462.92 Q1278.87 1462.73 1279.89 1462.73 Q1285.67 1462.73 1289.05 1465.9 Q1292.43 1469.08 1292.43 1474.49 Q1292.43 1480.07 1288.96 1483.17 Q1285.49 1486.25 1279.17 1486.25 Q1276.99 1486.25 1274.73 1485.88 Q1272.48 1485.51 1270.07 1484.77 L1270.07 1480.07 Q1272.16 1481.2 1274.38 1481.76 Q1276.6 1482.32 1279.08 1482.32 Q1283.08 1482.32 1285.42 1480.21 Q1287.76 1478.1 1287.76 1474.49 Q1287.76 1470.88 1285.42 1468.77 Q1283.08 1466.67 1279.08 1466.67 Q1277.2 1466.67 1275.33 1467.08 Q1273.48 1467.5 1271.53 1468.38 L1271.53 1451.02 Z" fill="#f8f8f2" fill-rule="evenodd" fill-opacity="1" /><path clip-path="url(#clip540)" d="M1301.65 1479.7 L1306.53 1479.7 L1306.53 1485.58 L1301.65 1485.58 L1301.65 1479.7 Z" fill="#f8f8f2" fill-rule="evenodd" fill-opacity="1" /><path clip-path="url(#clip540)" d="M1326.72 1454.1 Q1323.1 1454.1 1321.28 1457.66 Q1319.47 1461.2 1319.47 1468.33 Q1319.47 1475.44 1321.28 1479.01 Q1323.1 1482.55 1326.72 1482.55 Q1330.35 1482.55 1332.16 1479.01 Q1333.98 1475.44 1333.98 1468.33 Q1333.98 1461.2 1332.16 1457.66 Q1330.35 1454.1 1326.72 1454.1 M1326.72 1450.39 Q1332.53 1450.39 1335.58 1455 Q1338.66 1459.58 1338.66 1468.33 Q1338.66 1477.06 1335.58 1481.67 Q1332.53 1486.25 1326.72 1486.25 Q1320.91 1486.25 1317.83 1481.67 Q1314.77 1477.06 1314.77 1468.33 Q1314.77 1459.58 1317.83 1455 Q1320.91 1450.39 1326.72 1450.39 Z" fill="#f8f8f2" fill-rule="evenodd" fill-opacity="1" /><path clip-path="url(#clip540)" d="M1765.21 1451.02 L1787.43 1451.02 L1787.43 1453.01 L1774.89 1485.58 L1770 1485.58 L1781.81 1454.96 L1765.21 1454.96 L1765.21 1451.02 Z" fill="#f8f8f2" fill-rule="evenodd" fill-opacity="1" /><path clip-path="url(#clip540)" d="M1796.55 1479.7 L1801.44 1479.7 L1801.44 1485.58 L1796.55 1485.58 L1796.55 1479.7 Z" fill="#f8f8f2" fill-rule="evenodd" fill-opacity="1" /><path clip-path="url(#clip540)" d="M1811.67 1451.02 L1830.02 1451.02 L1830.02 1454.96 L1815.95 1454.96 L1815.95 1463.43 Q1816.97 1463.08 1817.99 1462.92 Q1819.01 1462.73 1820.02 1462.73 Q1825.81 1462.73 1829.19 1465.9 Q1832.57 1469.08 1832.57 1474.49 Q1832.57 1480.07 1829.1 1483.17 Q1825.63 1486.25 1819.31 1486.25 Q1817.13 1486.25 1814.86 1485.88 Q1812.62 1485.51 1810.21 1484.77 L1810.21 1480.07 Q1812.29 1481.2 1814.51 1481.76 Q1816.74 1482.32 1819.21 1482.32 Q1823.22 1482.32 1825.56 1480.21 Q1827.89 1478.1 1827.89 1474.49 Q1827.89 1470.88 1825.56 1468.77 Q1823.22 1466.67 1819.21 1466.67 Q1817.34 1466.67 1815.46 1467.08 Q1813.61 1467.5 1811.67 1468.38 L1811.67 1451.02 Z" fill="#f8f8f2" fill-rule="evenodd" fill-opacity="1" /><path clip-path="url(#clip540)" d="M2245.49 1481.64 L2253.12 1481.64 L2253.12 1455.28 L2244.81 1456.95 L2244.81 1452.69 L2253.08 1451.02 L2257.75 1451.02 L2257.75 1481.64 L2265.39 1481.64 L2265.39 1485.58 L2245.49 1485.58 L2245.49 1481.64 Z" fill="#f8f8f2" fill-rule="evenodd" fill-opacity="1" /><path clip-path="url(#clip540)" d="M2284.84 1454.1 Q2281.23 1454.1 2279.4 1457.66 Q2277.59 1461.2 2277.59 1468.33 Q2277.59 1475.44 2279.4 1479.01 Q2281.23 1482.55 2284.84 1482.55 Q2288.47 1482.55 2290.28 1479.01 Q2292.11 1475.44 2292.11 1468.33 Q2292.11 1461.2 2290.28 1457.66 Q2288.47 1454.1 2284.84 1454.1 M2284.84 1450.39 Q2290.65 1450.39 2293.7 1455 Q2296.78 1459.58 2296.78 1468.33 Q2296.78 1477.06 2293.7 1481.67 Q2290.65 1486.25 2284.84 1486.25 Q2279.03 1486.25 2275.95 1481.67 Q2272.89 1477.06 2272.89 1468.33 Q2272.89 1459.58 2275.95 1455 Q2279.03 1450.39 2284.84 1450.39 Z" fill="#f8f8f2" fill-rule="evenodd" fill-opacity="1" /><path clip-path="url(#clip540)" d="M2305 1479.7 L2309.88 1479.7 L2309.88 1485.58 L2305 1485.58 L2305 1479.7 Z" fill="#f8f8f2" fill-rule="evenodd" fill-opacity="1" /><path clip-path="url(#clip540)" d="M2330.07 1454.1 Q2326.46 1454.1 2324.63 1457.66 Q2322.82 1461.2 2322.82 1468.33 Q2322.82 1475.44 2324.63 1479.01 Q2326.46 1482.55 2330.07 1482.55 Q2333.7 1482.55 2335.51 1479.01 Q2337.34 1475.44 2337.34 1468.33 Q2337.34 1461.2 2335.51 1457.66 Q2333.7 1454.1 2330.07 1454.1 M2330.07 1450.39 Q2335.88 1450.39 2338.93 1455 Q2342.01 1459.58 2342.01 1468.33 Q2342.01 1477.06 2338.93 1481.67 Q2335.88 1486.25 2330.07 1486.25 Q2324.26 1486.25 2321.18 1481.67 Q2318.12 1477.06 2318.12 1468.33 Q2318.12 1459.58 2321.18 1455 Q2324.26 1450.39 2330.07 1450.39 Z" fill="#f8f8f2" fill-rule="evenodd" fill-opacity="1" /><path clip-path="url(#clip540)" d="M1153.88 1520.52 L1194.08 1520.52 L1194.08 1525.93 L1177.21 1525.93 L1177.21 1568.04 L1170.75 1568.04 L1170.75 1525.93 L1153.88 1525.93 L1153.88 1520.52 Z" fill="#f8f8f2" fill-rule="evenodd" fill-opacity="1" /><path clip-path="url(#clip540)" d="M1198.03 1532.4 L1203.88 1532.4 L1203.88 1568.04 L1198.03 1568.04 L1198.03 1532.4 M1198.03 1518.52 L1203.88 1518.52 L1203.88 1525.93 L1198.03 1525.93 L1198.03 1518.52 Z" fill="#f8f8f2" fill-rule="evenodd" fill-opacity="1" /><path clip-path="url(#clip540)" d="M1243.89 1539.24 Q1246.09 1535.29 1249.14 1533.41 Q1252.2 1531.54 1256.34 1531.54 Q1261.91 1531.54 1264.93 1535.45 Q1267.95 1539.33 1267.95 1546.53 L1267.95 1568.04 L1262.07 1568.04 L1262.07 1546.72 Q1262.07 1541.59 1260.25 1539.11 Q1258.44 1536.63 1254.71 1536.63 Q1250.16 1536.63 1247.52 1539.65 Q1244.88 1542.68 1244.88 1547.9 L1244.88 1568.04 L1238.99 1568.04 L1238.99 1546.72 Q1238.99 1541.56 1237.18 1539.11 Q1235.36 1536.63 1231.57 1536.63 Q1227.09 1536.63 1224.45 1539.68 Q1221.8 1542.71 1221.8 1547.9 L1221.8 1568.04 L1215.92 1568.04 L1215.92 1532.4 L1221.8 1532.4 L1221.8 1537.93 Q1223.81 1534.66 1226.61 1533.1 Q1229.41 1531.54 1233.26 1531.54 Q1237.14 1531.54 1239.85 1533.51 Q1242.59 1535.48 1243.89 1539.24 Z" fill="#f8f8f2" fill-rule="evenodd" fill-opacity="1" /><path clip-path="url(#clip540)" d="M1310.13 1548.76 L1310.13 1551.62 L1283.2 1551.62 Q1283.58 1557.67 1286.83 1560.85 Q1290.11 1564 1295.93 1564 Q1299.31 1564 1302.46 1563.17 Q1305.64 1562.35 1308.76 1560.69 L1308.76 1566.23 Q1305.61 1567.57 1302.3 1568.27 Q1298.99 1568.97 1295.58 1568.97 Q1287.05 1568.97 1282.05 1564 Q1277.09 1559.04 1277.09 1550.57 Q1277.09 1541.82 1281.8 1536.69 Q1286.54 1531.54 1294.56 1531.54 Q1301.76 1531.54 1305.93 1536.18 Q1310.13 1540.8 1310.13 1548.76 M1304.27 1547.04 Q1304.21 1542.23 1301.57 1539.37 Q1298.96 1536.5 1294.63 1536.5 Q1289.73 1536.5 1286.77 1539.27 Q1283.84 1542.04 1283.39 1547.07 L1304.27 1547.04 Z" fill="#f8f8f2" fill-rule="evenodd" fill-opacity="1" /><path clip-path="url(#clip540)" d="M1339.92 1518.52 L1353.41 1518.52 L1353.41 1523.07 L1345.78 1523.07 L1345.78 1572.09 L1353.41 1572.09 L1353.41 1576.64 L1339.92 1576.64 L1339.92 1518.52 Z" fill="#f8f8f2" fill-rule="evenodd" fill-opacity="1" /><path clip-path="url(#clip540)" d="M1395.52 1546.53 L1395.52 1568.04 L1389.67 1568.04 L1389.67 1546.72 Q1389.67 1541.66 1387.69 1539.14 Q1385.72 1536.63 1381.77 1536.63 Q1377.03 1536.63 1374.29 1539.65 Q1371.56 1542.68 1371.56 1547.9 L1371.56 1568.04 L1365.67 1568.04 L1365.67 1532.4 L1371.56 1532.4 L1371.56 1537.93 Q1373.66 1534.72 1376.49 1533.13 Q1379.35 1531.54 1383.08 1531.54 Q1389.22 1531.54 1392.37 1535.36 Q1395.52 1539.14 1395.52 1546.53 Z" fill="#f8f8f2" fill-rule="evenodd" fill-opacity="1" /><path clip-path="url(#clip540)" d="M1429.93 1533.45 L1429.93 1538.98 Q1427.45 1537.71 1424.77 1537.07 Q1422.1 1536.44 1419.24 1536.44 Q1414.88 1536.44 1412.68 1537.77 Q1410.51 1539.11 1410.51 1541.79 Q1410.51 1543.82 1412.07 1545 Q1413.63 1546.15 1418.34 1547.2 L1420.35 1547.64 Q1426.59 1548.98 1429.2 1551.43 Q1431.84 1553.85 1431.84 1558.21 Q1431.84 1563.17 1427.89 1566.07 Q1423.98 1568.97 1417.1 1568.97 Q1414.24 1568.97 1411.12 1568.39 Q1408.03 1567.85 1404.59 1566.74 L1404.59 1560.69 Q1407.84 1562.38 1410.99 1563.24 Q1414.14 1564.07 1417.23 1564.07 Q1421.37 1564.07 1423.6 1562.66 Q1425.82 1561.23 1425.82 1558.65 Q1425.82 1556.27 1424.2 1554.99 Q1422.61 1553.72 1417.17 1552.54 L1415.13 1552.07 Q1409.69 1550.92 1407.27 1548.56 Q1404.85 1546.18 1404.85 1542.04 Q1404.85 1537.01 1408.41 1534.27 Q1411.98 1531.54 1418.54 1531.54 Q1421.78 1531.54 1424.65 1532.01 Q1427.51 1532.49 1429.93 1533.45 Z" fill="#f8f8f2" fill-rule="evenodd" fill-opacity="1" /><path clip-path="url(#clip540)" d="M1454.85 1518.52 L1454.85 1576.64 L1441.36 1576.64 L1441.36 1572.09 L1448.96 1572.09 L1448.96 1523.07 L1441.36 1523.07 L1441.36 1518.52 L1454.85 1518.52 Z" fill="#f8f8f2" fill-rule="evenodd" fill-opacity="1" /><polyline clip-path="url(#clip543)" style="stroke:#f8f8f2; stroke-linecap:round; stroke-linejoin:round; stroke-width:2; stroke-opacity:0.1; fill:none" points="
  255.977,1408.61 2352.76,1408.61 
  "/>
<polyline clip-path="url(#clip543)" style="stroke:#f8f8f2; stroke-linecap:round; stroke-linejoin:round; stroke-width:2; stroke-opacity:0.1; fill:none" points="
  255.977,1281.44 2352.76,1281.44 
  "/>
<polyline clip-path="url(#clip543)" style="stroke:#f8f8f2; stroke-linecap:round; stroke-linejoin:round; stroke-width:2; stroke-opacity:0.1; fill:none" points="
  255.977,1154.27 2352.76,1154.27 
  "/>
<polyline clip-path="url(#clip543)" style="stroke:#f8f8f2; stroke-linecap:round; stroke-linejoin:round; stroke-width:2; stroke-opacity:0.1; fill:none" points="
  255.977,1027.1 2352.76,1027.1 
  "/>
<polyline clip-path="url(#clip543)" style="stroke:#f8f8f2; stroke-linecap:round; stroke-linejoin:round; stroke-width:2; stroke-opacity:0.1; fill:none" points="
  255.977,899.924 2352.76,899.924 
  "/>
<polyline clip-path="url(#clip540)" style="stroke:#f8f8f2; stroke-linecap:round; stroke-linejoin:round; stroke-width:4; stroke-opacity:1; fill:none" points="
  255.977,1423.18 255.977,885.358 
  "/>
<polyline clip-path="url(#clip540)" style="stroke:#f8f8f2; stroke-linecap:round; stroke-linejoin:round; stroke-width:4; stroke-opacity:1; fill:none" points="
  255.977,1408.61 274.875,1408.61 
  "/>
<polyline clip-path="url(#clip540)" style="stroke:#f8f8f2; stroke-linecap:round; stroke-linejoin:round; stroke-width:4; stroke-opacity:1; fill:none" points="
  255.977,1281.44 274.875,1281.44 
  "/>
<polyline clip-path="url(#clip540)" style="stroke:#f8f8f2; stroke-linecap:round; stroke-linejoin:round; stroke-width:4; stroke-opacity:1; fill:none" points="
  255.977,1154.27 274.875,1154.27 
  "/>
<polyline clip-path="url(#clip540)" style="stroke:#f8f8f2; stroke-linecap:round; stroke-linejoin:round; stroke-width:4; stroke-opacity:1; fill:none" points="
  255.977,1027.1 274.875,1027.1 
  "/>
<polyline clip-path="url(#clip540)" style="stroke:#f8f8f2; stroke-linecap:round; stroke-linejoin:round; stroke-width:4; stroke-opacity:1; fill:none" points="
  255.977,899.924 274.875,899.924 
  "/>
<path clip-path="url(#clip540)" d="M132.64 1394.41 Q129.029 1394.41 127.2 1397.98 Q125.394 1401.52 125.394 1408.65 Q125.394 1415.75 127.2 1419.32 Q129.029 1422.86 132.64 1422.86 Q136.274 1422.86 138.079 1419.32 Q139.908 1415.75 139.908 1408.65 Q139.908 1401.52 138.079 1397.98 Q136.274 1394.41 132.64 1394.41 M132.64 1390.71 Q138.45 1390.71 141.505 1395.32 Q144.584 1399.9 144.584 1408.65 Q144.584 1417.38 141.505 1421.98 Q138.45 1426.56 132.64 1426.56 Q126.83 1426.56 123.751 1421.98 Q120.695 1417.38 120.695 1408.65 Q120.695 1399.9 123.751 1395.32 Q126.83 1390.71 132.64 1390.71 Z" fill="#f8f8f2" fill-rule="evenodd" fill-opacity="1" /><path clip-path="url(#clip540)" d="M152.802 1420.01 L157.686 1420.01 L157.686 1425.89 L152.802 1425.89 L152.802 1420.01 Z" fill="#f8f8f2" fill-rule="evenodd" fill-opacity="1" /><path clip-path="url(#clip540)" d="M177.871 1394.41 Q174.26 1394.41 172.431 1397.98 Q170.626 1401.52 170.626 1408.65 Q170.626 1415.75 172.431 1419.32 Q174.26 1422.86 177.871 1422.86 Q181.505 1422.86 183.311 1419.32 Q185.139 1415.75 185.139 1408.65 Q185.139 1401.52 183.311 1397.98 Q181.505 1394.41 177.871 1394.41 M177.871 1390.71 Q183.681 1390.71 186.737 1395.32 Q189.815 1399.9 189.815 1408.65 Q189.815 1417.38 186.737 1421.98 Q183.681 1426.56 177.871 1426.56 Q172.061 1426.56 168.982 1421.98 Q165.927 1417.38 165.927 1408.65 Q165.927 1399.9 168.982 1395.32 Q172.061 1390.71 177.871 1390.71 Z" fill="#f8f8f2" fill-rule="evenodd" fill-opacity="1" /><path clip-path="url(#clip540)" d="M208.033 1394.41 Q204.422 1394.41 202.593 1397.98 Q200.787 1401.52 200.787 1408.65 Q200.787 1415.75 202.593 1419.32 Q204.422 1422.86 208.033 1422.86 Q211.667 1422.86 213.473 1419.32 Q215.301 1415.75 215.301 1408.65 Q215.301 1401.52 213.473 1397.98 Q211.667 1394.41 208.033 1394.41 M208.033 1390.71 Q213.843 1390.71 216.898 1395.32 Q219.977 1399.9 219.977 1408.65 Q219.977 1417.38 216.898 1421.98 Q213.843 1426.56 208.033 1426.56 Q202.223 1426.56 199.144 1421.98 Q196.088 1417.38 196.088 1408.65 Q196.088 1399.9 199.144 1395.32 Q202.223 1390.71 208.033 1390.71 Z" fill="#f8f8f2" fill-rule="evenodd" fill-opacity="1" /><path clip-path="url(#clip540)" d="M133.635 1267.24 Q130.024 1267.24 128.195 1270.8 Q126.39 1274.35 126.39 1281.48 Q126.39 1288.58 128.195 1292.15 Q130.024 1295.69 133.635 1295.69 Q137.269 1295.69 139.075 1292.15 Q140.904 1288.58 140.904 1281.48 Q140.904 1274.35 139.075 1270.8 Q137.269 1267.24 133.635 1267.24 M133.635 1263.54 Q139.445 1263.54 142.501 1268.14 Q145.579 1272.73 145.579 1281.48 Q145.579 1290.2 142.501 1294.81 Q139.445 1299.39 133.635 1299.39 Q127.825 1299.39 124.746 1294.81 Q121.691 1290.2 121.691 1281.48 Q121.691 1272.73 124.746 1268.14 Q127.825 1263.54 133.635 1263.54 Z" fill="#f8f8f2" fill-rule="evenodd" fill-opacity="1" /><path clip-path="url(#clip540)" d="M153.797 1292.84 L158.681 1292.84 L158.681 1298.72 L153.797 1298.72 L153.797 1292.84 Z" fill="#f8f8f2" fill-rule="evenodd" fill-opacity="1" /><path clip-path="url(#clip540)" d="M172.894 1294.79 L189.213 1294.79 L189.213 1298.72 L167.269 1298.72 L167.269 1294.79 Q169.931 1292.03 174.514 1287.4 Q179.121 1282.75 180.301 1281.41 Q182.547 1278.88 183.426 1277.15 Q184.329 1275.39 184.329 1273.7 Q184.329 1270.94 182.385 1269.21 Q180.464 1267.47 177.362 1267.47 Q175.163 1267.47 172.709 1268.24 Q170.278 1269 167.501 1270.55 L167.501 1265.83 Q170.325 1264.69 172.778 1264.11 Q175.232 1263.54 177.269 1263.54 Q182.639 1263.54 185.834 1266.22 Q189.028 1268.91 189.028 1273.4 Q189.028 1275.53 188.218 1277.45 Q187.431 1279.35 185.325 1281.94 Q184.746 1282.61 181.644 1285.83 Q178.542 1289.02 172.894 1294.79 Z" fill="#f8f8f2" fill-rule="evenodd" fill-opacity="1" /><path clip-path="url(#clip540)" d="M199.075 1264.16 L217.431 1264.16 L217.431 1268.1 L203.357 1268.1 L203.357 1276.57 Q204.375 1276.22 205.394 1276.06 Q206.412 1275.87 207.431 1275.87 Q213.218 1275.87 216.598 1279.05 Q219.977 1282.22 219.977 1287.63 Q219.977 1293.21 216.505 1296.31 Q213.033 1299.39 206.713 1299.39 Q204.537 1299.39 202.269 1299.02 Q200.024 1298.65 197.616 1297.91 L197.616 1293.21 Q199.7 1294.35 201.922 1294.9 Q204.144 1295.46 206.621 1295.46 Q210.625 1295.46 212.963 1293.35 Q215.301 1291.24 215.301 1287.63 Q215.301 1284.02 212.963 1281.92 Q210.625 1279.81 206.621 1279.81 Q204.746 1279.81 202.871 1280.23 Q201.019 1280.64 199.075 1281.52 L199.075 1264.16 Z" fill="#f8f8f2" fill-rule="evenodd" fill-opacity="1" /><path clip-path="url(#clip540)" d="M132.64 1140.07 Q129.029 1140.07 127.2 1143.63 Q125.394 1147.17 125.394 1154.3 Q125.394 1161.41 127.2 1164.97 Q129.029 1168.52 132.64 1168.52 Q136.274 1168.52 138.079 1164.97 Q139.908 1161.41 139.908 1154.3 Q139.908 1147.17 138.079 1143.63 Q136.274 1140.07 132.64 1140.07 M132.64 1136.36 Q138.45 1136.36 141.505 1140.97 Q144.584 1145.55 144.584 1154.3 Q144.584 1163.03 141.505 1167.64 Q138.45 1172.22 132.64 1172.22 Q126.83 1172.22 123.751 1167.64 Q120.695 1163.03 120.695 1154.3 Q120.695 1145.55 123.751 1140.97 Q126.83 1136.36 132.64 1136.36 Z" fill="#f8f8f2" fill-rule="evenodd" fill-opacity="1" /><path clip-path="url(#clip540)" d="M152.802 1165.67 L157.686 1165.67 L157.686 1171.55 L152.802 1171.55 L152.802 1165.67 Z" fill="#f8f8f2" fill-rule="evenodd" fill-opacity="1" /><path clip-path="url(#clip540)" d="M167.917 1136.99 L186.274 1136.99 L186.274 1140.92 L172.2 1140.92 L172.2 1149.4 Q173.218 1149.05 174.237 1148.89 Q175.255 1148.7 176.274 1148.7 Q182.061 1148.7 185.44 1151.87 Q188.82 1155.04 188.82 1160.46 Q188.82 1166.04 185.348 1169.14 Q181.876 1172.22 175.556 1172.22 Q173.38 1172.22 171.112 1171.85 Q168.866 1171.48 166.459 1170.74 L166.459 1166.04 Q168.542 1167.17 170.764 1167.73 Q172.987 1168.28 175.464 1168.28 Q179.468 1168.28 181.806 1166.18 Q184.144 1164.07 184.144 1160.46 Q184.144 1156.85 181.806 1154.74 Q179.468 1152.64 175.464 1152.64 Q173.589 1152.64 171.714 1153.05 Q169.862 1153.47 167.917 1154.35 L167.917 1136.99 Z" fill="#f8f8f2" fill-rule="evenodd" fill-opacity="1" /><path clip-path="url(#clip540)" d="M208.033 1140.07 Q204.422 1140.07 202.593 1143.63 Q200.787 1147.17 200.787 1154.3 Q200.787 1161.41 202.593 1164.97 Q204.422 1168.52 208.033 1168.52 Q211.667 1168.52 213.473 1164.97 Q215.301 1161.41 215.301 1154.3 Q215.301 1147.17 213.473 1143.63 Q211.667 1140.07 208.033 1140.07 M208.033 1136.36 Q213.843 1136.36 216.898 1140.97 Q219.977 1145.55 219.977 1154.3 Q219.977 1163.03 216.898 1167.64 Q213.843 1172.22 208.033 1172.22 Q202.223 1172.22 199.144 1167.64 Q196.088 1163.03 196.088 1154.3 Q196.088 1145.55 199.144 1140.97 Q202.223 1136.36 208.033 1136.36 Z" fill="#f8f8f2" fill-rule="evenodd" fill-opacity="1" /><path clip-path="url(#clip540)" d="M133.635 1012.9 Q130.024 1012.9 128.195 1016.46 Q126.39 1020 126.39 1027.13 Q126.39 1034.24 128.195 1037.8 Q130.024 1041.34 133.635 1041.34 Q137.269 1041.34 139.075 1037.8 Q140.904 1034.24 140.904 1027.13 Q140.904 1020 139.075 1016.46 Q137.269 1012.9 133.635 1012.9 M133.635 1009.19 Q139.445 1009.19 142.501 1013.8 Q145.579 1018.38 145.579 1027.13 Q145.579 1035.86 142.501 1040.46 Q139.445 1045.05 133.635 1045.05 Q127.825 1045.05 124.746 1040.46 Q121.691 1035.86 121.691 1027.13 Q121.691 1018.38 124.746 1013.8 Q127.825 1009.19 133.635 1009.19 Z" fill="#f8f8f2" fill-rule="evenodd" fill-opacity="1" /><path clip-path="url(#clip540)" d="M153.797 1038.5 L158.681 1038.5 L158.681 1044.38 L153.797 1044.38 L153.797 1038.5 Z" fill="#f8f8f2" fill-rule="evenodd" fill-opacity="1" /><path clip-path="url(#clip540)" d="M167.686 1009.82 L189.908 1009.82 L189.908 1011.81 L177.362 1044.38 L172.477 1044.38 L184.283 1013.75 L167.686 1013.75 L167.686 1009.82 Z" fill="#f8f8f2" fill-rule="evenodd" fill-opacity="1" /><path clip-path="url(#clip540)" d="M199.075 1009.82 L217.431 1009.82 L217.431 1013.75 L203.357 1013.75 L203.357 1022.22 Q204.375 1021.88 205.394 1021.71 Q206.412 1021.53 207.431 1021.53 Q213.218 1021.53 216.598 1024.7 Q219.977 1027.87 219.977 1033.29 Q219.977 1038.87 216.505 1041.97 Q213.033 1045.05 206.713 1045.05 Q204.537 1045.05 202.269 1044.68 Q200.024 1044.31 197.616 1043.57 L197.616 1038.87 Q199.7 1040 201.922 1040.56 Q204.144 1041.11 206.621 1041.11 Q210.625 1041.11 212.963 1039.01 Q215.301 1036.9 215.301 1033.29 Q215.301 1029.68 212.963 1027.57 Q210.625 1025.46 206.621 1025.46 Q204.746 1025.46 202.871 1025.88 Q201.019 1026.3 199.075 1027.18 L199.075 1009.82 Z" fill="#f8f8f2" fill-rule="evenodd" fill-opacity="1" /><path clip-path="url(#clip540)" d="M123.45 913.269 L131.089 913.269 L131.089 886.903 L122.779 888.57 L122.779 884.311 L131.042 882.644 L135.718 882.644 L135.718 913.269 L143.357 913.269 L143.357 917.204 L123.45 917.204 L123.45 913.269 Z" fill="#f8f8f2" fill-rule="evenodd" fill-opacity="1" /><path clip-path="url(#clip540)" d="M152.802 911.324 L157.686 911.324 L157.686 917.204 L152.802 917.204 L152.802 911.324 Z" fill="#f8f8f2" fill-rule="evenodd" fill-opacity="1" /><path clip-path="url(#clip540)" d="M177.871 885.723 Q174.26 885.723 172.431 889.287 Q170.626 892.829 170.626 899.959 Q170.626 907.065 172.431 910.63 Q174.26 914.171 177.871 914.171 Q181.505 914.171 183.311 910.63 Q185.139 907.065 185.139 899.959 Q185.139 892.829 183.311 889.287 Q181.505 885.723 177.871 885.723 M177.871 882.019 Q183.681 882.019 186.737 886.625 Q189.815 891.209 189.815 899.959 Q189.815 908.685 186.737 913.292 Q183.681 917.875 177.871 917.875 Q172.061 917.875 168.982 913.292 Q165.927 908.685 165.927 899.959 Q165.927 891.209 168.982 886.625 Q172.061 882.019 177.871 882.019 Z" fill="#f8f8f2" fill-rule="evenodd" fill-opacity="1" /><path clip-path="url(#clip540)" d="M208.033 885.723 Q204.422 885.723 202.593 889.287 Q200.787 892.829 200.787 899.959 Q200.787 907.065 202.593 910.63 Q204.422 914.171 208.033 914.171 Q211.667 914.171 213.473 910.63 Q215.301 907.065 215.301 899.959 Q215.301 892.829 213.473 889.287 Q211.667 885.723 208.033 885.723 M208.033 882.019 Q213.843 882.019 216.898 886.625 Q219.977 891.209 219.977 899.959 Q219.977 908.685 216.898 913.292 Q213.843 917.875 208.033 917.875 Q202.223 917.875 199.144 913.292 Q196.088 908.685 196.088 899.959 Q196.088 891.209 199.144 886.625 Q202.223 882.019 208.033 882.019 Z" fill="#f8f8f2" fill-rule="evenodd" fill-opacity="1" /><path clip-path="url(#clip540)" d="M28.2028 1315.96 L46.0587 1315.96 L46.0587 1307.87 Q46.0587 1303.39 43.7352 1300.93 Q41.4117 1298.48 37.1148 1298.48 Q32.8498 1298.48 30.5263 1300.93 Q28.2028 1303.39 28.2028 1307.87 L28.2028 1315.96 M22.9193 1322.39 L22.9193 1307.87 Q22.9193 1299.88 26.5478 1295.81 Q30.1444 1291.7 37.1148 1291.7 Q44.1489 1291.7 47.7456 1295.81 Q51.3422 1299.88 51.3422 1307.87 L51.3422 1315.96 L70.4393 1315.96 L70.4393 1322.39 L22.9193 1322.39 Z" fill="#f8f8f2" fill-rule="evenodd" fill-opacity="1" /><path clip-path="url(#clip540)" d="M40.2659 1263.82 Q39.6929 1264.81 39.4383 1265.99 Q39.1519 1267.13 39.1519 1268.53 Q39.1519 1273.5 42.3984 1276.17 Q45.6131 1278.81 51.6605 1278.81 L70.4393 1278.81 L70.4393 1284.7 L34.7914 1284.7 L34.7914 1278.81 L40.3295 1278.81 Q37.083 1276.97 35.5234 1274.01 Q33.932 1271.05 33.932 1266.81 Q33.932 1266.21 34.0275 1265.48 Q34.0911 1264.75 34.2503 1263.85 L40.2659 1263.82 Z" fill="#f8f8f2" fill-rule="evenodd" fill-opacity="1" /><path clip-path="url(#clip540)" d="M38.8972 1245.3 Q38.8972 1250.01 42.5893 1252.75 Q46.2496 1255.48 52.6472 1255.48 Q59.0447 1255.48 62.7368 1252.78 Q66.3971 1250.04 66.3971 1245.3 Q66.3971 1240.62 62.705 1237.88 Q59.0129 1235.15 52.6472 1235.15 Q46.3133 1235.15 42.6212 1237.88 Q38.8972 1240.62 38.8972 1245.3 M33.932 1245.3 Q33.932 1237.66 38.8972 1233.3 Q43.8625 1228.94 52.6472 1228.94 Q61.4 1228.94 66.3971 1233.3 Q71.3623 1237.66 71.3623 1245.3 Q71.3623 1252.97 66.3971 1257.33 Q61.4 1261.66 52.6472 1261.66 Q43.8625 1261.66 38.8972 1257.33 Q33.932 1252.97 33.932 1245.3 Z" fill="#f8f8f2" fill-rule="evenodd" fill-opacity="1" /><path clip-path="url(#clip540)" d="M52.6472 1193.64 Q46.186 1193.64 42.5257 1196.31 Q38.8336 1198.96 38.8336 1203.6 Q38.8336 1208.25 42.5257 1210.92 Q46.186 1213.57 52.6472 1213.57 Q59.1084 1213.57 62.8005 1210.92 Q66.4607 1208.25 66.4607 1203.6 Q66.4607 1198.96 62.8005 1196.31 Q59.1084 1193.64 52.6472 1193.64 M40.2022 1213.57 Q37.0193 1211.72 35.4916 1208.92 Q33.932 1206.09 33.932 1202.17 Q33.932 1195.68 39.0882 1191.64 Q44.2444 1187.56 52.6472 1187.56 Q61.0499 1187.56 66.2061 1191.64 Q71.3623 1195.68 71.3623 1202.17 Q71.3623 1206.09 69.8346 1208.92 Q68.275 1211.72 65.0921 1213.57 L70.4393 1213.57 L70.4393 1219.45 L20.9141 1219.45 L20.9141 1213.57 L40.2022 1213.57 Z" fill="#f8f8f2" fill-rule="evenodd" fill-opacity="1" /><path clip-path="url(#clip540)" d="M52.5198 1161.65 Q52.5198 1168.75 54.1431 1171.49 Q55.7664 1174.23 59.6813 1174.23 Q62.8005 1174.23 64.6465 1172.19 Q66.4607 1170.12 66.4607 1166.59 Q66.4607 1161.72 63.0233 1158.79 Q59.5539 1155.83 53.8248 1155.83 L52.5198 1155.83 L52.5198 1161.65 M50.1009 1149.97 L70.4393 1149.97 L70.4393 1155.83 L65.0285 1155.83 Q68.275 1157.83 69.8346 1160.83 Q71.3623 1163.82 71.3623 1168.15 Q71.3623 1173.62 68.3068 1176.87 Q65.2194 1180.08 60.0632 1180.08 Q54.0476 1180.08 50.9921 1176.07 Q47.9365 1172.03 47.9365 1164.04 L47.9365 1155.83 L47.3636 1155.83 Q43.3214 1155.83 41.1252 1158.5 Q38.8972 1161.14 38.8972 1165.95 Q38.8972 1169.01 39.6293 1171.9 Q40.3613 1174.8 41.8255 1177.47 L36.4146 1177.47 Q35.1733 1174.26 34.5686 1171.23 Q33.932 1168.21 33.932 1165.35 Q33.932 1157.61 37.9424 1153.79 Q41.9528 1149.97 50.1009 1149.97 Z" fill="#f8f8f2" fill-rule="evenodd" fill-opacity="1" /><path clip-path="url(#clip540)" d="M52.6472 1112.32 Q46.186 1112.32 42.5257 1114.99 Q38.8336 1117.63 38.8336 1122.28 Q38.8336 1126.93 42.5257 1129.6 Q46.186 1132.24 52.6472 1132.24 Q59.1084 1132.24 62.8005 1129.6 Q66.4607 1126.93 66.4607 1122.28 Q66.4607 1117.63 62.8005 1114.99 Q59.1084 1112.32 52.6472 1112.32 M40.2022 1132.24 Q37.0193 1130.4 35.4916 1127.6 Q33.932 1124.76 33.932 1120.85 Q33.932 1114.36 39.0882 1110.31 Q44.2444 1106.24 52.6472 1106.24 Q61.0499 1106.24 66.2061 1110.31 Q71.3623 1114.36 71.3623 1120.85 Q71.3623 1124.76 69.8346 1127.6 Q68.275 1130.4 65.0921 1132.24 L70.4393 1132.24 L70.4393 1138.13 L20.9141 1138.13 L20.9141 1132.24 L40.2022 1132.24 Z" fill="#f8f8f2" fill-rule="evenodd" fill-opacity="1" /><path clip-path="url(#clip540)" d="M34.7914 1096.53 L34.7914 1090.68 L70.4393 1090.68 L70.4393 1096.53 L34.7914 1096.53 M20.9141 1096.53 L20.9141 1090.68 L28.3302 1090.68 L28.3302 1096.53 L20.9141 1096.53 Z" fill="#f8f8f2" fill-rule="evenodd" fill-opacity="1" /><path clip-path="url(#clip540)" d="M20.9141 1078.42 L20.9141 1072.57 L70.4393 1072.57 L70.4393 1078.42 L20.9141 1078.42 Z" fill="#f8f8f2" fill-rule="evenodd" fill-opacity="1" /><path clip-path="url(#clip540)" d="M34.7914 1060.31 L34.7914 1054.45 L70.4393 1054.45 L70.4393 1060.31 L34.7914 1060.31 M20.9141 1060.31 L20.9141 1054.45 L28.3302 1054.45 L28.3302 1060.31 L20.9141 1060.31 Z" fill="#f8f8f2" fill-rule="evenodd" fill-opacity="1" /><path clip-path="url(#clip540)" d="M24.6699 1036.41 L34.7914 1036.41 L34.7914 1024.34 L39.3428 1024.34 L39.3428 1036.41 L58.6946 1036.41 Q63.0551 1036.41 64.2964 1035.23 Q65.5377 1034.02 65.5377 1030.36 L65.5377 1024.34 L70.4393 1024.34 L70.4393 1030.36 Q70.4393 1037.14 67.9249 1039.72 Q65.3786 1042.3 58.6946 1042.3 L39.3428 1042.3 L39.3428 1046.59 L34.7914 1046.59 L34.7914 1042.3 L24.6699 1042.3 L24.6699 1036.41 Z" fill="#f8f8f2" fill-rule="evenodd" fill-opacity="1" /><path clip-path="url(#clip540)" d="M73.7495 1001.81 Q80.1152 1004.29 82.0567 1006.65 Q83.9983 1009 83.9983 1012.95 L83.9983 1017.63 L79.0967 1017.63 L79.0967 1014.19 Q79.0967 1011.77 77.9508 1010.44 Q76.805 1009.1 72.54 1007.48 L69.8664 1006.43 L34.7914 1020.84 L34.7914 1014.64 L62.6731 1003.5 L34.7914 992.357 L34.7914 986.151 L73.7495 1001.81 Z" fill="#f8f8f2" fill-rule="evenodd" fill-opacity="1" /><polyline clip-path="url(#clip543)" style="stroke:#8be9fd; stroke-linecap:round; stroke-linejoin:round; stroke-width:4; stroke-opacity:1; fill:none" points="
  315.32,900.579 335.301,902.498 355.281,905.575 375.262,909.674 395.243,914.635 415.224,920.286 435.204,926.453 455.185,932.967 475.166,939.676 495.147,946.445 
  515.127,953.165 535.108,959.753 555.089,966.152 575.07,972.334 595.05,978.294 615.031,984.055 635.012,989.658 654.993,995.164 674.973,1000.65 694.954,1006.21 
  714.935,1011.92 734.915,1017.91 754.896,1024.25 774.877,1031.05 794.858,1038.38 814.838,1046.31 834.819,1054.89 854.8,1064.13 874.781,1074.04 894.761,1084.58 
  914.742,1095.69 934.723,1107.3 954.704,1119.3 974.684,1131.56 994.665,1143.95 1014.65,1156.33 1034.63,1168.57 1054.61,1180.53 1074.59,1192.09 1094.57,1203.15 
  1114.55,1213.62 1134.53,1223.45 1154.51,1232.59 1174.49,1241.02 1194.47,1248.75 1214.45,1255.79 1234.43,1262.18 1254.41,1267.97 1274.4,1273.2 1294.38,1277.94 
  1314.36,1282.25 1334.34,1286.2 1354.32,1289.83 1374.3,1293.21 1394.28,1296.39 1414.26,1299.39 1434.24,1302.26 1454.22,1305 1474.2,1307.65 1494.18,1310.19 
  1514.16,1312.62 1534.15,1314.94 1554.13,1317.13 1574.11,1319.17 1594.09,1321.05 1614.07,1322.74 1634.05,1324.25 1654.03,1325.55 1674.01,1326.63 1693.99,1327.51 
  1713.97,1328.16 1733.95,1328.59 1753.93,1328.79 1773.91,1328.77 1793.89,1328.52 1813.88,1328.02 1833.86,1327.26 1853.84,1326.21 1873.82,1324.86 1893.8,1323.15 
  1913.78,1321.04 1933.76,1318.5 1953.74,1315.46 1973.72,1311.86 1993.7,1307.65 2013.68,1302.75 2033.66,1297.11 2053.64,1290.68 2073.62,1283.39 2093.61,1275.21 
  2113.59,1266.13 2133.57,1256.13 2153.55,1245.26 2173.53,1233.56 2193.51,1221.14 2213.49,1208.14 2233.47,1194.72 2253.45,1181.11 2273.43,1167.53 2293.41,1154.27 
  
  "/>
<polyline clip-path="url(#clip543)" style="stroke:#ff79c6; stroke-linecap:round; stroke-linejoin:round; stroke-width:4; stroke-opacity:1; fill:none" points="
  315.32,1407.96 335.301,1406.05 355.281,1402.99 375.262,1398.96 395.243,1394.12 415.224,1388.67 435.204,1382.8 455.185,1376.69 475.166,1370.49 495.147,1364.34 
  515.127,1358.33 535.108,1352.52 555.089,1346.96 575.07,1341.66 595.05,1336.59 615.031,1331.73 635.012,1327.01 654.993,1322.36 674.973,1317.71 694.954,1312.98 
  714.935,1308.06 734.915,1302.87 754.896,1297.31 774.877,1291.31 794.858,1284.78 814.838,1277.66 834.819,1269.9 854.8,1261.47 874.781,1252.36 894.761,1242.58 
  914.742,1232.16 934.723,1221.16 954.704,1209.67 974.684,1197.79 994.665,1185.65 1014.65,1173.36 1034.63,1161.08 1054.61,1148.95 1074.59,1137.09 1094.57,1125.63 
  1114.55,1114.68 1134.53,1104.33 1154.51,1094.65 1174.49,1085.68 1194.47,1077.45 1214.45,1069.96 1234.43,1063.21 1254.41,1057.15 1274.4,1051.75 1294.38,1046.95 
  1314.36,1042.69 1334.34,1038.92 1354.32,1035.56 1374.3,1032.54 1394.28,1029.82 1414.26,1027.32 1434.24,1025 1454.22,1022.8 1474.2,1020.69 1494.18,1018.63 
  1514.16,1016.61 1534.15,1014.6 1554.13,1012.6 1574.11,1010.61 1594.09,1008.65 1614.07,1006.71 1634.05,1004.84 1654.03,1003.04 1674.01,1001.34 1693.99,999.782 
  1713.97,998.376 1733.95,997.15 1753.93,996.126 1773.91,995.321 1793.89,994.755 1813.88,994.442 1833.86,994.399 1853.84,994.646 1873.82,995.206 1893.8,996.107 
  1913.78,997.385 1933.76,999.083 1953.74,1001.26 1973.72,1003.97 1993.7,1007.28 2013.68,1011.27 2033.66,1016.03 2053.64,1021.62 2073.62,1028.12 2093.61,1035.59 
  2113.59,1044.05 2133.57,1053.53 2153.55,1064 2173.53,1075.4 2193.51,1087.61 2213.49,1100.5 2233.47,1113.85 2253.45,1127.44 2273.43,1141 2293.41,1154.27 
  
  "/>
<path clip-path="url(#clip540)" d="
M2019.82 1058.81 L2282.86 1058.81 L2282.86 903.286 L2019.82 903.286  Z
  " fill="#282a36" fill-rule="evenodd" fill-opacity="1"/>
<polyline clip-path="url(#clip540)" style="stroke:#f8f8f2; stroke-linecap:round; stroke-linejoin:round; stroke-width:4; stroke-opacity:1; fill:none" points="
  2019.82,1058.81 2282.86,1058.81 2282.86,903.286 2019.82,903.286 2019.82,1058.81 
  "/>
<polyline clip-path="url(#clip540)" style="stroke:#8be9fd; stroke-linecap:round; stroke-linejoin:round; stroke-width:4; stroke-opacity:1; fill:none" points="
  2043.12,955.126 2182.9,955.126 
  "/>
<path clip-path="url(#clip540)" d="M2206.2 977.517 L2206.2 932.851 Q2206.2 931.07 2207.16 931.07 Q2208.12 931.07 2208.12 932.499 L2208.12 977.166 Q2208.12 978.946 2207.16 978.946 Q2206.2 978.946 2206.2 977.517 Z" fill="#f8f8f2" fill-rule="evenodd" fill-opacity="1" /><path clip-path="url(#clip540)" d="M2215.43 951.659 Q2215.43 944.609 2217.21 940.767 Q2219.7 935.052 2225.55 935.052 Q2226.79 935.052 2228.08 935.404 Q2229.39 935.732 2231.03 937.02 Q2232.7 938.308 2233.7 940.416 Q2235.62 944.492 2235.62 951.659 Q2235.62 958.662 2233.84 962.48 Q2231.24 968.055 2225.51 968.055 Q2223.35 968.055 2221.15 966.954 Q2218.97 965.853 2217.59 963.206 Q2215.43 959.248 2215.43 951.659 M2219.42 951.073 Q2219.42 958.311 2219.93 961.192 Q2220.52 964.307 2222.11 965.665 Q2223.73 967.001 2225.51 967.001 Q2227.43 967.001 2229.02 965.572 Q2230.63 964.12 2231.13 961.004 Q2231.67 957.936 2231.64 951.073 Q2231.64 944.398 2231.17 941.728 Q2230.54 938.612 2228.85 937.371 Q2227.19 936.106 2225.51 936.106 Q2224.87 936.106 2224.19 936.294 Q2223.54 936.481 2222.58 937.02 Q2221.62 937.558 2220.87 938.894 Q2220.14 940.229 2219.79 942.243 Q2219.42 944.843 2219.42 951.073 Z" fill="#f8f8f2" fill-rule="evenodd" fill-opacity="1" /><path clip-path="url(#clip540)" d="M2249.96 954.68 Q2250 954.774 2250 955.008 Q2250 955.242 2249.96 955.336 L2241.03 978.36 Q2240.8 978.993 2240.14 978.993 Q2239.75 978.993 2239.46 978.712 Q2239.18 978.431 2239.18 978.032 Q2239.18 977.798 2239.23 977.705 L2248.04 955.008 L2239.23 932.312 Q2239.18 932.218 2239.18 931.984 Q2239.18 931.586 2239.46 931.305 Q2239.75 931.024 2240.14 931.024 Q2240.8 931.024 2241.03 931.656 L2249.96 954.68 Z" fill="#f8f8f2" fill-rule="evenodd" fill-opacity="1" /><polyline clip-path="url(#clip540)" style="stroke:#ff79c6; stroke-linecap:round; stroke-linejoin:round; stroke-width:4; stroke-opacity:1; fill:none" points="
  2043.12,1006.97 2182.9,1006.97 
  "/>
<path clip-path="url(#clip540)" d="M2206.2 1029.36 L2206.2 984.691 Q2206.2 982.91 2207.16 982.91 Q2208.12 982.91 2208.12 984.339 L2208.12 1029.01 Q2208.12 1030.79 2207.16 1030.79 Q2206.2 1030.79 2206.2 1029.36 Z" fill="#f8f8f2" fill-rule="evenodd" fill-opacity="1" /><path clip-path="url(#clip540)" d="M2217.35 991.46 L2217.35 989.961 Q2223.12 989.961 2226.09 986.892 Q2226.91 986.892 2227.05 987.08 Q2227.19 987.267 2227.19 988.134 L2227.19 1015.05 Q2227.19 1016.47 2227.89 1016.92 Q2228.6 1017.36 2231.66 1017.36 L2233.19 1017.36 L2233.19 1018.84 Q2231.5 1018.7 2225.41 1018.7 Q2219.32 1018.7 2217.66 1018.84 L2217.66 1017.36 L2219.18 1017.36 Q2222.2 1017.36 2222.93 1016.94 Q2223.65 1016.5 2223.65 1015.05 L2223.65 990.195 Q2221.15 991.46 2217.35 991.46 Z" fill="#f8f8f2" fill-rule="evenodd" fill-opacity="1" /><path clip-path="url(#clip540)" d="M2251.88 1006.52 Q2251.92 1006.61 2251.92 1006.85 Q2251.92 1007.08 2251.88 1007.18 L2242.95 1030.2 Q2242.72 1030.83 2242.06 1030.83 Q2241.67 1030.83 2241.38 1030.55 Q2241.1 1030.27 2241.1 1029.87 Q2241.1 1029.64 2241.15 1029.54 L2249.96 1006.85 L2241.15 984.152 Q2241.1 984.058 2241.1 983.824 Q2241.1 983.426 2241.38 983.145 Q2241.67 982.864 2242.06 982.864 Q2242.72 982.864 2242.95 983.496 L2251.88 1006.52 Z" fill="#f8f8f2" fill-rule="evenodd" fill-opacity="1" /></svg>
